<?xml version="1.0" standalone="no"?>
<!DOCTYPE svg PUBLIC "-//W3C//DTD SVG 20010904//EN"
 "http://www.w3.org/TR/2001/REC-SVG-20010904/DTD/svg10.dtd">
<svg version="1.0" xmlns="http://www.w3.org/2000/svg"
 width="705.000000pt" height="705.000000pt" viewBox="0 0 705.000000 705.000000"
 preserveAspectRatio="xMidYMid meet">

<g transform="translate(0.000000,705.000000) scale(0.100000,-0.100000)"
fill="#000000" stroke="none">
<path d="M3315 7044 c-22 -2 -89 -9 -150 -14 -398 -39 -851 -171 -1217 -357
-143 -72 -148 -75 -169 -121 -43 -95 -90 -247 -96 -307 -5 -58 -4 -64 24 -95
l29 -32 154 60 c251 99 650 254 715 277 119 44 801 306 832 321 17 7 35 14 39
14 5 0 56 19 114 42 440 173 441 174 468 157 15 -9 27 -10 44 -2 24 11 -17 19
-218 43 -85 11 -503 21 -569 14z m-1375 -641 c0 -13 -23 14 -40 47 -32 62 -23
71 10 11 17 -30 30 -56 30 -58z"/>
<path d="M4267 6956 c12 -9 50 -31 85 -50 51 -26 67 -41 85 -77 30 -60 29 -68
-14 -85 -21 -8 -46 -19 -56 -25 -11 -6 -58 -25 -105 -44 -48 -18 -193 -77
-322 -130 -242 -99 -329 -134 -1000 -400 -217 -86 -410 -166 -428 -177 -52
-32 -86 -87 -148 -242 l-57 -144 19 -46 c10 -25 25 -46 33 -46 8 0 24 -9 36
-20 20 -19 21 -19 100 16 44 19 170 73 280 120 110 47 214 91 230 99 48 22
667 285 670 285 2 0 32 13 67 29 35 16 243 107 463 201 665 287 604 263 627
248 18 -12 27 -11 67 9 75 37 83 33 119 -50 l21 -48 -22 -8 c-12 -5 -51 -22
-87 -39 -36 -16 -126 -55 -200 -87 -74 -31 -148 -63 -165 -71 -16 -7 -68 -29
-115 -49 -47 -20 -170 -73 -275 -117 -104 -45 -219 -93 -255 -109 -36 -15
-123 -52 -195 -82 -71 -30 -233 -99 -360 -152 -349 -146 -392 -170 -441 -246
-48 -76 -146 -310 -140 -335 4 -13 12 -21 19 -18 7 2 37 -20 67 -51 30 -30 58
-55 63 -55 5 0 86 35 180 79 95 43 244 111 332 151 88 40 243 110 345 157 102
47 226 103 275 125 50 23 124 56 165 76 421 194 754 349 844 391 59 28 109 51
111 51 1 0 49 22 106 49 94 45 106 48 121 34 15 -14 22 -12 74 16 l56 30 39
-22 c25 -14 42 -32 45 -47 3 -14 10 -38 16 -53 9 -23 8 -30 -8 -42 -11 -8 -23
-15 -27 -15 -5 0 -63 -27 -130 -59 -67 -33 -214 -102 -327 -154 -480 -221
-1110 -511 -1310 -603 -250 -114 -297 -141 -345 -196 -19 -23 -69 -110 -112
-194 l-78 -154 92 -92 92 -92 133 66 c1532 767 2404 1195 2418 1186 12 -8 32
-2 79 20 l63 30 81 -50 c45 -27 89 -55 97 -62 36 -31 43 -27 16 10 -430 579
-967 986 -1626 1232 -128 48 -378 121 -465 136 -38 7 -39 7 -18 -8z m-1665
-1132 c21 -62 18 -82 -5 -37 -17 32 -34 112 -22 101 4 -4 17 -33 27 -64z m509
-440 c1 -21 8 -50 16 -63 11 -16 12 -26 4 -34 -7 -7 -15 0 -26 26 -15 37 -20
99 -8 110 10 11 13 3 14 -39z m1449 -334 c0 -6 -14 -13 -30 -17 -17 -3 -43
-19 -58 -34 -15 -16 -36 -29 -48 -29 -11 0 -29 -9 -39 -20 -10 -11 -26 -20
-35 -20 -9 0 -25 -9 -35 -20 -10 -11 -27 -22 -39 -26 -11 -4 -32 -14 -46 -24
-14 -9 -37 -20 -52 -24 -15 -3 -33 -12 -40 -19 -18 -17 -158 -87 -175 -87 -7
0 -13 -4 -13 -9 0 -5 -28 -24 -62 -42 -98 -51 -101 -53 -135 -76 -17 -13 -38
-23 -46 -23 -8 0 -20 -7 -27 -15 -17 -21 -70 -20 -70 1 0 9 16 50 35 92 39 81
40 90 29 175 -5 40 -3 57 5 57 6 0 11 -13 11 -29 0 -35 9 -63 19 -57 4 3 6
-12 4 -32 -2 -34 -2 -35 5 -7 5 20 14 30 27 31 34 3 63 15 69 31 3 8 10 11 16
8 11 -7 77 13 100 30 8 7 34 17 58 24 24 7 46 19 49 27 3 8 18 14 34 14 28 0
37 3 86 28 13 7 37 12 55 12 18 0 46 7 63 16 16 8 49 18 72 21 24 3 46 10 49
15 3 5 12 4 20 -3 12 -10 16 -8 21 9 5 22 23 31 23 11 0 -6 7 -3 16 5 17 18
84 22 84 6z"/>
<path d="M401 5153 c-8 -15 -6 -32 7 -67 15 -38 20 -44 32 -33 12 10 12 9 1
-5 -11 -14 -10 -25 4 -63 21 -52 14 -70 -10 -28 -15 27 -15 27 -10 3 6 -23 5
-24 -6 -5 -12 18 -16 35 -18 75 -1 12 -3 13 -10 1 -7 -11 -12 -9 -22 10 -12
23 -14 21 -50 -59 -22 -48 -36 -90 -32 -100 3 -9 3 -14 -2 -10 -19 18 -115
-245 -173 -478 -135 -537 -146 -1056 -35 -1589 188 -906 733 -1708 1505 -2218
230 -152 457 -267 724 -368 180 -67 540 -161 604 -157 14 0 38 -4 53 -11 16
-6 41 -11 55 -10 15 0 40 -2 56 -6 23 -5 27 -3 22 10 -3 9 -6 25 -6 36 0 10
-4 19 -10 19 -5 0 -10 -9 -10 -21 0 -11 -4 -17 -10 -14 -5 3 -10 15 -10 26 0
11 -4 18 -9 14 -13 -7 -27 20 -36 68 -8 39 -25 51 -25 17 0 -11 5 -20 10 -20
6 0 10 -9 10 -20 0 -11 -5 -19 -12 -17 -7 1 -14 -11 -17 -27 -6 -27 -7 -27
-22 -10 -9 11 -24 45 -34 77 -20 64 -39 77 -30 20 5 -28 4 -34 -4 -23 -6 8
-11 21 -11 28 0 8 -9 21 -20 30 -14 12 -23 34 -27 70 -3 28 -10 52 -16 52 -6
0 -7 -22 -3 -58 6 -52 5 -55 -9 -38 -8 11 -17 36 -20 55 -10 63 -20 94 -31 98
-7 2 -10 -14 -8 -49 l4 -53 -13 45 c-7 25 -10 55 -5 67 7 22 -17 174 -33 204
-4 9 -5 19 -2 23 12 12 42 -70 55 -149 8 -49 19 -80 27 -83 15 -5 15 -6 -12
130 -8 38 -10 68 -5 68 4 0 8 -9 8 -20 0 -11 5 -20 10 -20 6 0 10 16 10 35 0
23 -5 35 -14 35 -9 0 -15 20 -20 62 -3 34 -4 63 -2 66 13 12 26 -14 26 -49 0
-23 7 -47 15 -55 8 -9 15 -27 15 -42 0 -28 28 -115 31 -97 1 6 0 36 -1 69 -1
43 1 57 11 54 7 -2 13 -13 15 -24 12 -88 17 -110 24 -119 15 -18 23 -112 11
-119 -6 -4 -11 -25 -11 -48 0 -32 3 -39 15 -34 8 3 15 1 15 -5 0 -6 4 -8 9 -5
5 3 11 -11 15 -32 3 -20 9 -59 14 -87 l9 -50 2 50 c3 104 14 186 25 182 6 -2
11 -8 11 -13 0 -10 22 -71 35 -95 4 -9 11 -41 15 -72 9 -68 25 -66 25 4 0 28
5 49 11 49 6 0 8 -8 5 -18 -7 -19 29 -61 41 -49 10 11 32 -13 26 -29 -3 -8 0
-21 7 -29 14 -16 22 -75 11 -75 -20 1 -34 23 -37 61 -2 23 -8 47 -13 52 -10
10 -5 -99 5 -115 7 -12 52 -10 59 2 5 8 11 8 20 0 7 -6 20 -8 29 -4 9 3 16 1
16 -5 0 -7 22 -11 55 -11 55 0 55 0 49 27 -4 16 -10 35 -15 44 -15 29 -22 116
-10 123 7 4 10 0 9 -11 -2 -17 8 -62 34 -145 14 -49 35 -50 30 -3 -2 19 1 42
7 49 7 9 8 17 2 20 -5 3 -12 33 -16 67 -4 33 -10 58 -13 54 -3 -3 -11 7 -18
22 l-12 28 -1 -27 c-1 -41 -21 -34 -21 8 0 23 -4 33 -11 28 -14 -8 -29 14 -29
44 0 12 -4 22 -10 22 -5 0 -10 -1 -11 -2 0 -2 -3 -32 -6 -68 -6 -74 -18 -96
-28 -51 -4 17 -14 46 -23 64 l-17 32 -5 -50 -6 -50 -14 30 -13 30 -7 -30 -8
-30 -1 33 c-1 40 -28 44 -33 5 -4 -31 -28 -44 -28 -15 0 19 -15 62 -45 128
-12 25 -14 63 -9 177 4 99 2 147 -5 151 -11 7 -15 -16 -11 -61 1 -13 -3 -23
-9 -23 -6 0 -11 15 -11 33 0 17 -7 54 -15 81 -17 57 -19 80 -5 71 6 -3 10 -17
10 -30 0 -13 5 -27 10 -30 11 -7 13 36 4 71 -4 16 -11 20 -30 16 -19 -3 -24 0
-23 14 0 11 3 14 6 7 2 -7 9 -13 15 -13 7 0 8 21 4 61 -5 40 -4 59 3 55 7 -4
8 11 4 44 -3 27 -3 50 0 50 8 0 47 -80 47 -96 0 -6 7 -18 16 -25 14 -11 16
-29 12 -107 -3 -51 -1 -95 3 -98 5 -3 9 -22 9 -44 0 -23 5 -40 14 -43 27 -11
31 125 4 159 -14 18 -23 144 -10 144 6 0 12 19 14 42 l3 43 18 -35 18 -35 -3
45 c-2 34 0 44 11 42 10 -2 12 5 8 32 -5 34 -5 35 19 24 17 -8 23 -17 19 -29
-3 -10 4 -37 17 -61 13 -24 26 -52 29 -63 6 -15 7 -13 8 12 1 17 6 33 12 35 8
3 7 14 -5 35 -9 18 -16 40 -16 50 0 20 -44 150 -54 160 -3 4 -6 17 -6 30 0 13
-4 22 -9 18 -11 -6 -41 90 -41 127 1 21 2 22 14 5 7 -9 16 -36 20 -58 4 -26
10 -38 18 -33 6 4 8 3 5 -3 -3 -5 0 -27 8 -49 20 -55 19 -12 -1 77 -9 38 -13
75 -11 82 3 6 6 0 6 -15 1 -16 6 -28 12 -28 8 0 10 15 5 49 -5 39 -3 50 9 55
11 4 15 -2 15 -27 1 -18 9 -50 20 -72 11 -22 19 -50 20 -63 0 -13 7 -30 15
-38 8 -9 15 -12 15 -7 0 5 -5 14 -12 21 -6 6 -12 51 -13 109 -2 54 -6 105 -9
114 -4 10 -3 20 3 23 12 8 24 -46 23 -107 0 -27 3 -58 8 -70 8 -20 9 -18 9 10
1 43 24 34 39 -15 10 -34 11 -32 6 26 -6 74 11 86 22 14 3 -26 13 -59 20 -74
8 -15 15 -40 16 -55 1 -15 7 -31 13 -36 6 -4 5 -10 -5 -16 -12 -8 -13 -19 -2
-67 6 -32 9 -60 6 -63 -9 -10 -34 31 -34 56 0 13 -4 23 -9 23 -6 0 -7 -24 -4
-56 5 -42 2 -58 -8 -65 -12 -7 -12 -9 1 -9 16 -1 50 -65 50 -94 0 -10 5 -14
11 -11 6 4 9 26 7 49 -1 22 2 41 7 41 9 0 23 -56 28 -112 3 -38 17 -26 18 15
0 20 4 46 9 57 l9 20 0 -20 c1 -17 3 -17 11 -5 8 12 10 8 11 -15 1 -25 3 -22
10 14 10 53 19 64 19 25 l1 -29 18 35 c11 19 16 37 12 40 -5 3 -9 21 -9 40 -1
19 -4 64 -6 100 -3 36 -2 56 1 45 3 -11 12 -28 20 -37 9 -10 18 -34 20 -55 6
-52 13 -55 13 -5 0 23 4 50 9 60 5 9 12 26 16 37 6 19 7 19 20 -5 l14 -25 10
25 c5 14 10 18 11 10 3 -34 10 -77 15 -99 4 -14 1 -27 -5 -31 -8 -5 -9 -20 -4
-46 l8 -39 6 40 6 40 9 -53 c4 -29 12 -55 17 -58 18 -11 38 19 38 56 0 33 3
37 20 33 15 -4 20 0 20 16 0 30 15 26 32 -10 14 -29 16 -29 21 -9 3 12 10 19
15 16 6 -3 8 -16 4 -28 -3 -13 -1 -19 5 -15 13 8 23 57 12 57 -5 0 -9 14 -9
30 0 17 5 30 10 30 6 0 10 -11 10 -24 0 -13 6 -29 14 -35 19 -16 26 26 14 82
-14 58 -22 164 -12 154 4 -4 7 -24 7 -45 -1 -29 0 -32 6 -13 7 27 31 41 31 18
0 -8 3 -30 6 -48 4 -27 3 -31 -6 -19 -12 16 -11 -8 9 -117 11 -59 17 -73 33
-73 12 0 3 133 -13 215 -6 28 -9 68 -7 90 l4 40 9 -30 c4 -16 14 -35 21 -42
10 -11 13 -8 17 14 4 26 5 27 12 6 12 -36 35 -37 35 -2 0 18 4 28 10 24 6 -3
10 -27 10 -53 0 -26 5 -54 10 -62 8 -12 10 -11 10 8 0 12 5 22 10 22 6 0 10
-7 10 -15 0 -27 19 -16 22 12 3 28 3 28 25 -12 17 -31 22 -35 23 -19 0 12 7
24 15 28 8 3 15 15 15 26 0 27 18 26 30 -2 8 -22 9 -21 10 7 0 17 5 37 10 45
7 12 10 8 10 -15 0 -16 7 -39 15 -49 14 -18 15 -16 15 26 0 38 4 48 20 53 11
3 20 11 20 16 0 6 7 17 15 25 13 14 15 13 15 -5 0 -11 5 -23 10 -26 6 -3 10
-23 10 -43 0 -38 15 -88 39 -131 7 -13 10 -37 7 -55 -3 -17 -1 -50 3 -73 5
-24 5 -43 0 -43 -4 0 -11 16 -15 35 -8 44 -30 41 -26 -3 3 -24 -1 -32 -12 -32
-9 0 -16 6 -16 14 0 8 -4 17 -9 20 -5 4 -7 -2 -4 -13 3 -10 0 -22 -6 -25 -6
-4 -11 -28 -11 -54 l-1 -47 -13 31 c-18 40 -36 52 -36 25 0 -12 -7 -21 -15
-21 -8 0 -15 6 -15 14 0 8 -4 17 -8 20 -4 2 -6 -11 -4 -30 5 -37 -12 -47 -23
-14 -6 18 -8 19 -35 5 -26 -14 -28 -17 -19 -47 5 -18 9 -44 9 -58 0 -20 -2
-22 -10 -10 -5 8 -10 30 -10 49 0 44 -10 34 -20 -20 -6 -34 -5 -42 9 -46 13
-3 16 -17 13 -86 -3 -102 -11 -157 -24 -157 -5 0 -7 -20 -4 -47 5 -41 4 -44
-4 -18 -7 20 -6 63 1 130 7 71 7 101 0 103 -6 2 -11 10 -11 18 0 9 5 12 10 9
6 -3 10 3 10 14 0 12 -4 21 -9 21 -5 0 -12 10 -14 22 -2 13 -5 4 -6 -19 -1
-30 -5 -43 -15 -43 -8 0 -17 -6 -19 -12 -4 -10 -8 -9 -16 2 -8 12 -11 8 -11
-19 l0 -33 -20 23 -19 24 -1 -48 c0 -34 -3 -46 -12 -41 -8 5 -9 2 -3 -12 17
-39 17 -80 1 -93 -14 -12 -15 -7 -12 50 2 35 7 82 11 104 7 37 7 39 -8 26 -15
-12 -17 -11 -17 12 0 14 -4 29 -10 32 -6 4 -10 -7 -10 -27 0 -54 -12 -108 -22
-102 -5 3 -6 26 -2 50 4 31 3 44 -5 44 -7 0 -9 -4 -6 -10 3 -5 2 -18 -4 -27
-8 -15 -11 -12 -25 17 l-16 35 3 -42 c3 -44 -16 -61 -27 -25 -2 9 -4 -1 -3
-23 2 -48 -15 -62 -24 -20 -4 19 -7 5 -7 -40 0 -45 3 -59 7 -40 3 17 11 28 16
26 6 -2 16 -6 22 -8 7 -3 10 -9 7 -14 -3 -5 0 -17 5 -26 9 -15 11 -13 11 12 1
17 5 39 9 49 7 19 8 18 15 -5 11 -32 7 -143 -5 -147 -5 -2 -9 -15 -9 -28 0
-34 -19 -30 -31 6 -6 17 -15 30 -20 30 -5 0 -9 13 -9 29 0 17 -4 33 -10 36 -6
4 -10 -8 -10 -29 0 -20 5 -36 10 -36 6 0 10 -7 10 -15 0 -27 -18 -16 -25 15
-8 37 -25 40 -25 4 0 -14 -4 -23 -10 -19 -5 3 -10 15 -10 26 0 11 -7 22 -15
25 -8 4 -15 14 -15 23 0 13 -2 13 -9 2 -5 -8 -7 -21 -3 -30 3 -9 2 -13 -3 -9
-4 4 -10 22 -14 40 -10 46 -27 32 -23 -20 2 -23 1 -42 -2 -42 -2 0 -15 21 -27
48 l-24 47 -7 -45 c-3 -25 -7 -67 -7 -93 -1 -29 -5 -46 -11 -42 -5 3 -10 16
-10 28 0 24 -31 111 -44 124 -4 4 -5 -19 -1 -52 8 -72 9 -198 3 -315 -3 -47
-2 -87 2 -90 4 -3 5 -19 3 -37 -6 -40 -33 -34 -33 8 0 16 -4 29 -10 29 -5 0
-10 -22 -10 -50 l0 -50 123 6 c144 7 147 7 147 34 0 26 20 26 27 0 6 -24 17
-25 148 -5 168 26 264 45 393 76 146 36 172 46 172 71 0 10 5 18 11 18 6 0 9
-8 6 -19 -3 -14 0 -17 14 -14 10 3 23 11 29 18 6 8 17 12 24 9 6 -2 54 11 106
30 l95 34 5 53 c3 33 10 54 19 57 10 3 12 0 8 -11 -3 -9 -9 -32 -13 -52 -6
-35 -5 -37 15 -30 91 28 203 95 161 95 -5 0 -10 13 -10 30 0 22 4 28 15 24 11
-5 15 2 15 26 0 26 3 30 13 21 11 -9 14 -5 15 19 0 16 -4 32 -9 35 -5 4 -9 1
-9 -6 0 -7 -2 -10 -5 -7 -9 8 6 59 15 53 4 -3 8 35 8 83 0 111 11 214 23 206
5 -3 9 -62 10 -132 1 -94 3 -118 10 -92 5 19 7 58 5 85 -4 53 10 115 15 65 1
-14 3 -60 4 -103 1 -50 5 -81 13 -86 17 -10 -12 -81 -33 -81 -9 0 -15 -9 -15
-24 0 -13 -6 -29 -14 -35 -16 -13 -32 -69 -22 -78 7 -7 174 83 314 170 135 84
270 182 398 290 89 75 90 75 86 116 -5 47 -19 52 -68 22 l-31 -19 5 45 c6 53
-9 68 -47 49 -35 -18 -52 -10 -45 19 3 13 1 33 -6 44 -10 20 -13 20 -40 6 -43
-22 -49 -19 -48 25 1 51 -5 57 -42 43 -33 -12 -40 -9 -40 23 0 43 -9 54 -37
43 -43 -16 -52 -11 -55 29 -3 32 -6 37 -28 36 -14 0 -32 -3 -40 -5 -11 -3 -16
6 -18 33 -3 39 -24 55 -44 34 -22 -23 -48 -7 -48 28 0 42 -6 47 -40 35 -20 -7
-30 -20 -35 -42 -6 -25 -9 -27 -12 -12 -13 66 -27 105 -38 105 -18 0 -37 -26
-39 -54 0 -13 -5 -22 -10 -19 -5 3 -6 36 -4 74 4 51 2 69 -8 73 -7 3 -15 2
-18 -2 -2 -4 -7 -63 -11 -130 -4 -68 -11 -118 -15 -112 -8 14 -5 93 5 141 8
33 -2 89 -15 89 -5 0 -7 -7 -4 -15 9 -22 -6 -106 -17 -100 -14 9 -11 149 3
163 9 9 9 15 1 23 -18 18 -41 3 -46 -28 l-4 -28 -2 28 c-1 32 -26 37 -34 7 -3
-13 -1 -18 6 -13 7 4 8 0 4 -11 -4 -10 -7 -27 -7 -39 0 -18 -2 -19 -10 -7 -5
8 -10 42 -10 75 1 56 2 59 16 40 15 -19 15 -19 12 10 -2 24 -8 30 -28 30 l-25
0 -5 -130 c-5 -117 -6 -124 -13 -73 -5 31 -5 72 -1 92 4 22 2 42 -5 49 -6 8
-10 35 -9 61 2 48 -16 76 -36 56 -17 -17 -25 -11 -34 23 -7 28 -13 32 -40 32
-22 0 -32 5 -32 15 0 20 -32 48 -50 42 -7 -3 -19 3 -25 12 -11 14 -13 11 -19
-21 -3 -21 -6 -56 -7 -78 0 -32 -2 -36 -9 -20 -15 34 -11 115 5 131 21 22 19
34 -8 34 -31 0 -55 -20 -59 -48 -2 -12 -7 -21 -13 -20 -14 4 -8 78 8 94 4 4 7
12 7 18 0 6 -5 4 -10 -4 -6 -10 -10 -11 -10 -2 0 6 -11 12 -25 12 -17 0 -25 5
-25 18 0 26 -37 47 -56 31 -8 -7 -13 -18 -10 -26 3 -8 1 -11 -4 -8 -6 3 -10
-1 -10 -9 0 -8 5 -18 10 -21 6 -3 10 -43 9 -88 -1 -97 -17 -78 -18 21 -1 39
-5 61 -11 57 -6 -3 -10 4 -11 17 -1 29 -6 111 -8 120 0 3 -10 4 -21 1 -25 -7
-36 -44 -21 -71 6 -12 10 -54 10 -94 -1 -55 -3 -65 -9 -43 -4 17 -8 53 -9 82
0 28 -6 55 -11 58 -6 4 -10 31 -8 63 3 53 1 57 -19 60 -19 3 -23 -2 -24 -25
-2 -34 0 -80 6 -153 3 -38 2 -49 -4 -35 -7 15 -10 5 -11 -40 l-2 -60 -10 55
c-5 30 -7 82 -5 114 4 41 2 55 -4 45 -7 -9 -9 6 -7 50 3 56 1 64 -16 67 -10 1
-23 9 -27 16 -6 9 -9 5 -9 -13 0 -14 4 -29 9 -35 13 -14 23 -164 11 -164 -6 0
-10 19 -10 43 -1 23 -7 60 -15 82 -17 48 -19 99 -4 127 13 24 12 25 -25 30
-26 3 -31 -1 -38 -29 -5 -18 -13 -35 -20 -39 -7 -4 -8 -3 -4 5 4 6 8 34 10 61
1 44 -1 50 -19 50 -22 0 -49 -51 -35 -67 10 -11 21 -153 11 -153 -5 0 -11 30
-14 67 -4 37 -12 70 -18 74 -11 6 -9 49 6 109 5 21 4 22 -4 5 -8 -17 -10 -18
-10 -2 -1 11 -9 17 -26 17 -21 0 -25 -5 -25 -28 0 -15 4 -32 9 -38 5 -5 12
-47 15 -94 8 -105 -10 -88 -20 19 -4 39 -11 71 -16 71 -4 0 -8 22 -7 50 2 44
-12 80 -30 80 -7 0 -4 -187 3 -206 3 -7 1 -16 -4 -19 -5 -3 -12 16 -15 42 -3
27 -11 69 -17 96 -5 26 -8 63 -6 82 3 24 0 35 -9 35 -7 0 -13 6 -14 13 0 6 -4
3 -9 -8 -7 -18 -9 -17 -15 12 -5 19 -15 33 -27 37 -19 4 -20 1 -15 -40 3 -26
0 -44 -6 -44 -6 0 -8 -23 -4 -65 4 -36 3 -65 -1 -65 -8 0 -30 111 -41 207 -3
34 -12 68 -19 75 -11 11 -13 -10 -10 -116 4 -134 2 -136 -26 -24 -18 75 -22
163 -6 138 6 -10 10 -11 10 -2 0 6 -9 21 -20 32 -18 18 -20 18 -21 3 -1 -12
-4 -9 -8 7 -4 14 -12 25 -18 25 -6 0 -23 10 -38 23 -15 13 -35 24 -44 25 -12
1 -17 7 -13 19 2 10 -1 19 -7 19 -6 1 -16 2 -22 3 -6 0 -16 9 -23 18 -10 13
-15 15 -24 6 -9 -9 -12 -8 -12 4 0 23 -20 34 -31 17 -6 -10 -9 -11 -9 -1 0 22
-30 13 -31 -10 -1 -21 -2 -21 -6 -3 -9 44 -26 75 -40 75 -12 0 -13 -12 -8 -67
4 -38 11 -83 16 -102 8 -35 5 -51 -8 -38 -6 7 -32 181 -32 222 -1 17 1 17 9 5
5 -8 10 -11 10 -7 0 17 -42 67 -55 67 -8 0 -19 9 -25 20 -6 11 -17 20 -25 20
-8 0 -22 11 -31 25 -9 14 -24 25 -34 25 -10 0 -21 9 -25 19 -3 10 -17 21 -30
24 -25 4 -34 -6 -15 -18 6 -3 10 -12 10 -18 0 -7 -7 -3 -16 8 -8 11 -12 26 -9
33 5 13 -16 42 -30 42 -3 0 -10 -10 -15 -22 -8 -20 -9 -18 -7 12 2 28 -3 37
-20 45 -13 5 -23 13 -23 17 0 3 -7 14 -16 22 -20 21 -48 21 -40 1 8 -22 -2
-18 -15 6 -8 15 -8 19 0 15 6 -4 11 -3 11 2 0 14 -152 132 -162 126 -5 -3 -8
-2 -7 3 5 27 -2 35 -26 29 -14 -4 -25 -2 -25 4 0 5 -9 10 -19 10 -13 0 -24 13
-34 39 -19 47 -41 66 -31 27 10 -39 -3 -31 -17 11 -11 36 -33 63 -73 93 -18
14 -18 13 -12 -10 6 -21 5 -22 -4 -7 -6 9 -8 22 -5 27 6 9 -37 53 -72 74 -12
6 -14 4 -8 -14 5 -16 4 -20 -5 -15 -6 4 -9 16 -7 27 5 19 -9 35 -136 149 -27
24 -69 63 -94 87 -39 37 -59 48 -96 51 -4 1 -21 24 -38 51 -17 28 -34 50 -37
50 -4 0 -28 19 -53 43 -25 23 -62 56 -83 72 -21 17 -46 37 -55 46 -9 8 -36 31
-61 50 -61 46 -80 61 -99 79 -44 42 -112 91 -119 86 -5 -3 -25 13 -46 34 -38
40 -196 163 -202 157 -2 -2 10 -35 26 -73 28 -63 30 -66 28 -32 -1 20 1 40 5
44 4 4 7 -4 7 -18 0 -14 7 -50 16 -79 9 -30 22 -74 30 -100 7 -25 16 -54 19
-65 4 -12 1 -10 -8 6 -9 14 -19 23 -24 21 -4 -2 -13 6 -19 18 -14 28 -27 40
-18 18 10 -27 -4 -20 -21 11 -9 15 -14 19 -11 10 9 -30 -3 -20 -23 20 -11 21
-27 67 -36 103 -17 62 -20 79 -24 144 -2 29 -2 29 -18 10 -12 -15 -14 -16 -10
-3 3 9 -1 22 -9 28 -10 10 -14 10 -14 1 0 -19 28 -69 42 -74 10 -4 10 -7 0
-18 -11 -12 -15 -11 -23 4 -6 9 -14 15 -19 12 -4 -3 -10 2 -14 10 -3 8 -12 12
-21 9 -10 -4 -15 0 -15 10 0 9 -6 16 -14 16 -8 0 -18 9 -21 20 -4 11 -10 18
-15 15 -4 -3 3 -32 17 -66 13 -33 22 -63 20 -66 -3 -2 -15 23 -28 56 -12 34
-24 60 -26 57 -2 -2 5 -25 15 -52 11 -27 23 -58 27 -69 7 -20 6 -20 -9 -1 -9
11 -16 16 -16 10 0 -5 -10 2 -21 16 -11 14 -18 19 -14 11 5 -9 0 -8 -18 4 -14
9 -28 23 -31 31 -3 9 -9 13 -14 10 -9 -5 -10 3 -16 86 -6 69 -27 109 -69 128
-18 7 -49 24 -69 37 -21 13 -38 20 -38 17 0 -8 -91 88 -107 113 -9 14 -10 10
-2 -20 6 -22 9 -41 6 -43 -8 -8 -58 77 -87 149 -16 40 -30 64 -30 54 0 -10 5
-27 10 -38 7 -13 7 -19 0 -19 -5 0 -10 6 -10 13 0 8 -4 7 -10 -3 -7 -11 -10
-7 -11 20 -1 19 -3 27 -6 18 -6 -24 -18 -23 -20 2 -1 11 3 20 8 20 6 0 7 5 3
11 -5 8 -9 8 -14 -1 -10 -16 -23 4 -26 39 -4 35 -20 47 -33 24z m-24 -165 c-3
-8 -6 -5 -6 6 -1 11 2 17 5 13 3 -3 4 -12 1 -19z m93 -113 c0 -11 -14 7 -31
40 -7 13 -3 12 10 -5 11 -14 21 -29 21 -35z m-130 -40 c0 -5 -5 -3 -10 5 -5 8
-10 20 -10 25 0 6 5 3 10 -5 5 -8 10 -19 10 -25z m-25 -1 c9 -15 12 -23 6 -20
-11 7 -35 46 -28 46 3 0 12 -12 22 -26z m142 -36 c7 -16 11 -28 9 -28 -8 0
-36 58 -35 72 0 9 2 8 6 -2 3 -8 12 -27 20 -42z m193 32 c6 -11 8 -20 6 -20
-3 0 -10 9 -16 20 -6 11 -8 20 -6 20 3 0 10 -9 16 -20z m245 -265 c3 -33 2
-37 -7 -21 -6 11 -12 43 -14 70 -3 45 -2 48 7 21 5 -16 12 -48 14 -70z m194
-87 c6 -24 16 -50 22 -58 9 -12 10 -11 4 5 -20 55 -13 62 9 10 14 -33 26 -61
26 -63 0 -1 -15 13 -34 32 -19 19 -37 31 -40 28 -3 -3 -6 -1 -7 4 -10 99 0
119 20 42z m71 -61 c7 -21 14 -36 16 -34 3 2 0 16 -6 31 -5 15 -10 33 -9 39 0
7 10 -15 23 -48 25 -65 35 -95 29 -82 -3 4 -11 7 -18 7 -14 0 -47 65 -59 115
-10 42 8 20 24 -28z m216 -72 c10 -27 20 -62 21 -77 2 -15 9 -42 18 -60 l15
-33 -5 35 c-6 40 2 27 30 -53 19 -55 33 -57 15 -3 -6 20 -10 40 -8 45 2 5 13
-21 24 -57 12 -36 16 -58 9 -49 -6 9 -15 14 -18 11 -3 -3 -12 3 -19 15 -7 12
-18 21 -24 21 -14 0 -39 65 -55 139 -7 34 -14 49 -19 41 -5 -9 -8 -5 -7 11 1
13 -2 38 -7 54 -11 44 7 19 30 -40z m-411 -18 c4 -17 14 -43 22 -55 8 -13 13
-26 10 -28 -5 -5 -41 67 -52 105 -5 15 -3 21 3 17 6 -3 13 -21 17 -39z m76
-113 c7 -8 9 -17 6 -21 -9 -8 -47 77 -46 102 1 11 7 0 15 -24 7 -24 19 -50 25
-57z m341 4 c9 -27 14 -48 11 -48 -9 0 -43 87 -42 110 0 23 1 23 8 5 4 -11 15
-41 23 -67z m157 -143 c12 -20 12 -20 7 0 -18 70 -18 78 -8 71 5 -3 13 -24 17
-45 3 -22 13 -47 20 -58 22 -28 17 -41 -5 -15 -10 13 -22 22 -26 22 -10 -2
-43 79 -43 105 0 11 6 2 13 -20 7 -23 18 -50 25 -60z m-179 24 c0 -6 -4 -7
-10 -4 -5 3 -10 11 -10 16 0 6 5 7 10 4 6 -3 10 -11 10 -16z m-51 -29 c0 -10
-3 -8 -9 5 -12 27 -12 43 0 25 5 -8 9 -22 9 -30z m34 -15 c27 -76 28 -80 9
-45 -18 33 -40 101 -29 90 3 -3 12 -23 20 -45z m67 4 c0 -18 44 -62 53 -53 3
3 13 -11 22 -31 19 -48 11 -59 -9 -14 -15 34 -15 34 -9 4 4 -16 14 -48 24 -70
10 -22 19 -47 18 -55 0 -13 -27 46 -70 149 -14 33 -22 20 -9 -15 6 -16 7 -24
2 -19 -9 9 -42 125 -42 143 0 14 20 -24 20 -39z m-71 -64 c0 -5 -6 1 -14 15
-8 14 -14 30 -14 35 0 6 6 -1 14 -15 8 -14 14 -29 14 -35z m331 12 c0 -10 7
-32 16 -48 8 -17 13 -33 10 -36 -7 -8 -35 59 -42 100 -4 24 -3 28 5 17 6 -8
11 -23 11 -33z m64 -126 c-2 -2 -6 2 -9 10 -24 67 -35 104 -34 118 0 9 11 -15
24 -54 13 -38 21 -72 19 -74z m-563 7 c12 -51 24 -88 26 -81 2 6 -3 38 -11 71
-23 87 -18 97 10 22 23 -63 24 -64 18 -20 -8 60 1 48 21 -25 9 -33 23 -84 31
-114 19 -72 12 -76 -10 -6 -30 94 -47 82 -20 -14 7 -22 6 -23 -8 -10 -9 7 -14
17 -11 21 2 5 -1 16 -6 25 -9 15 -11 12 -12 -17 -3 -50 -3 -52 6 -80 6 -20 2
-18 -24 14 -30 38 -42 35 -20 -6 6 -11 9 -22 6 -24 -7 -7 -64 135 -71 176 -4
25 0 19 14 -20 l19 -55 -4 45 -5 45 15 -35 c15 -34 15 -35 11 -5 -2 17 -7 48
-10 70 -5 33 -2 30 14 -20 11 -33 20 -72 20 -87 0 -16 4 -28 10 -28 11 0 6 31
-21 142 -18 74 -23 108 -15 108 2 0 14 -42 27 -92z m604 -28 c5 -9 4 -11 -3
-6 -11 7 -43 100 -41 120 0 6 9 -14 18 -45 10 -31 22 -62 26 -69z m-645 90 c0
-11 -2 -20 -4 -20 -2 0 -6 9 -9 20 -3 11 -1 20 4 20 5 0 9 -9 9 -20z m446 -47
c7 -18 11 -33 8 -33 -7 0 -34 67 -33 82 0 8 3 8 6 -2 3 -8 12 -30 19 -47z
m228 -38 c8 -27 13 -51 11 -53 -8 -8 -35 59 -40 99 -6 51 4 34 29 -46z m-464
-25 c0 -17 -29 42 -34 70 -5 29 -3 27 14 -15 11 -27 20 -52 20 -55z m129 30
c0 -8 -7 1 -14 20 -18 46 -17 64 0 25 8 -16 14 -37 14 -45z m376 -39 c9 -29
14 -56 11 -59 -9 -8 -35 62 -41 110 -6 51 4 33 30 -51z m-574 -8 c7 -7 6 -13
0 -17 -13 -9 -18 1 -25 54 -5 44 -5 44 5 10 6 -19 15 -40 20 -47z m355 42 c8
-21 -6 -41 -17 -24 -12 19 -11 39 1 39 6 0 13 -7 16 -15z m-509 -17 c-3 -8 -6
-5 -6 6 -1 11 2 17 5 13 3 -3 4 -12 1 -19z m760 -25 c6 -27 15 -57 19 -67 5
-13 4 -17 -4 -12 -6 4 -16 26 -22 49 -6 23 -13 50 -16 60 -3 9 -2 17 3 17 5 0
13 -21 20 -47z m-493 21 c3 -8 2 -12 -4 -9 -6 3 -10 10 -10 16 0 14 7 11 14
-7z m216 -5 c0 -6 -4 -7 -10 -4 -5 3 -10 11 -10 16 0 6 5 7 10 4 6 -3 10 -11
10 -16z m-167 -74 c-3 -9 2 -37 10 -63 8 -26 18 -61 22 -79 3 -17 13 -37 21
-44 14 -11 14 -9 1 22 -19 45 -36 119 -27 119 4 0 14 -24 23 -52 15 -49 16
-50 11 -13 -3 29 -2 36 5 25 6 -8 11 -24 11 -35 0 -11 11 -38 25 -60 13 -22
25 -56 26 -75 1 -32 2 -33 9 -10 l7 25 7 -25 c4 -14 13 -54 21 -90 l15 -65 -4
70 c-5 80 6 56 25 -53 16 -88 22 -72 8 22 -5 43 -8 80 -6 83 3 2 14 -33 26
-79 l20 -83 -4 70 -4 70 17 -70 c10 -38 21 -65 24 -59 4 6 3 26 -2 45 -5 19
-12 63 -14 97 -3 35 -9 69 -14 75 -5 7 -6 23 -2 37 6 21 8 16 18 -30 22 -108
33 -196 32 -247 0 -29 3 -53 8 -53 9 0 34 -80 47 -150 9 -49 -11 -19 -26 38
-7 23 -14 41 -16 38 -4 -4 11 -69 24 -103 5 -12 3 -14 -6 -8 -10 6 -12 0 -7
-26 4 -25 4 -29 -3 -14 -5 11 -10 34 -10 50 -2 40 -12 76 -20 70 -4 -2 -6 -23
-4 -47 3 -38 49 -332 72 -463 5 -27 6 -53 2 -57 -4 -4 -15 38 -25 95 -9 56
-28 162 -42 235 -14 73 -25 142 -24 155 5 53 -2 122 -9 103 -6 -17 -10 -14
-24 20 -14 34 -16 36 -16 13 -1 -14 4 -30 11 -37 9 -9 9 -12 0 -12 -16 0 -15
-35 2 -52 18 -19 23 -42 101 -514 34 -206 41 -263 29 -252 -12 13 -103 544
-104 612 -1 17 -7 45 -15 61 -13 29 -13 28 -9 -25 l4 -55 -15 49 c-19 57 -28
58 -15 1 5 -22 9 -49 9 -60 l0 -20 -9 20 c-4 11 -13 36 -19 55 -10 32 -10 29
-6 -25 3 -33 10 -78 16 -100 11 -37 13 -38 19 -15 7 27 5 32 55 -290 45 -294
57 -358 110 -585 17 -71 18 -93 6 -79 -5 5 -16 41 -24 79 -66 310 -80 386
-113 613 -9 62 -21 115 -26 118 -6 4 -8 -1 -5 -12 3 -11 9 -41 12 -69 14 -105
74 -478 82 -510 4 -13 2 -17 -5 -10 -11 11 -113 608 -137 798 -8 64 -19 125
-25 135 -10 14 -11 13 -6 -8 12 -60 18 -114 12 -108 -11 9 -35 118 -36 155 0
17 -4 34 -8 37 -8 5 -2 -53 22 -204 9 -58 14 -75 17 -55 5 34 75 -328 89 -458
5 -45 12 -100 15 -122 3 -22 3 -35 0 -30 -8 16 -74 385 -79 445 -9 91 -18 132
-26 123 -5 -4 -4 -32 1 -62 6 -29 8 -56 5 -59 -3 -3 -9 9 -12 26 -8 39 -23 43
-17 5 3 -22 0 -20 -11 10 -8 20 -18 64 -22 98 -4 37 -11 58 -18 56 -6 -2 -17
10 -24 27 l-12 31 5 -32 c7 -51 -8 -39 -27 20 -16 48 -17 49 -12 12 3 -22 3
-37 -1 -33 -4 3 -12 46 -18 94 -13 92 -36 129 -31 50 1 -24 -3 -52 -9 -60 -10
-14 -13 -8 -15 31 -2 26 -7 54 -13 62 -6 11 -7 1 -3 -29 12 -79 -6 -36 -20 51
-13 76 -39 159 -51 159 -2 0 -2 -8 2 -17 3 -10 4 -16 1 -13 -10 8 -48 123 -48
142 0 10 -4 18 -8 18 -12 0 -33 71 -25 83 3 6 1 7 -5 3 -7 -4 -14 4 -18 21
-10 47 -12 49 -14 13 l-2 -35 -9 30 c-5 17 -7 39 -4 50 3 11 2 14 -1 6 -5 -10
-10 -8 -20 10 -13 24 -13 24 -14 2 0 -12 6 -37 14 -55 42 -101 64 -212 26
-133 -11 22 -20 51 -20 65 0 14 -9 43 -20 65 -20 39 -20 34 -5 -35 l6 -25 -14
25 c-8 14 -18 44 -22 68 -7 41 -24 58 -26 25 0 -10 -7 -1 -15 21 -7 21 -11 42
-8 47 3 5 1 24 -5 44 -5 20 -6 47 -1 62 5 16 9 20 9 11 1 -10 9 -36 18 -57
l17 -40 17 25 16 26 7 -37 c4 -20 10 -34 13 -31 3 3 17 -17 30 -44 13 -28 25
-50 27 -50 2 0 2 19 0 43 -2 23 -1 33 2 22 4 -11 10 -25 15 -31 6 -7 14 -31
18 -55 8 -38 9 -40 11 -14 2 28 3 27 16 -15 l14 -45 -5 58 c-4 38 -2 56 5 52
5 -3 10 -21 11 -38 1 -30 1 -31 9 -7 l7 25 7 -27 c3 -16 9 -40 12 -55 6 -25 7
-26 13 -9 7 18 8 18 15 -5 5 -13 8 -28 7 -34 -1 -5 5 -2 13 8 12 16 15 12 24
-40 l9 -58 3 50 2 50 14 -50 14 -50 -4 53 c-4 59 9 51 20 -13 l8 -40 6 30 c7
29 7 29 15 -15 8 -40 10 -42 16 -20 6 22 7 20 15 -20 8 -43 8 -44 14 -15 l7
30 7 -30 c4 -16 11 -38 16 -47 5 -9 17 -49 26 -87 8 -39 17 -71 20 -71 2 0 1
28 -2 63 -4 45 -3 58 5 47 6 -8 11 -26 11 -40 0 -14 5 -32 11 -40 8 -11 9 -1
4 35 -3 28 -9 58 -12 69 -3 12 -1 16 6 12 25 -16 8 13 -32 53 -10 10 -27 47
-37 82 l-20 64 6 -50 c3 -27 3 -48 0 -44 -12 11 -56 141 -56 164 0 13 -5 27
-11 31 -7 4 -9 0 -6 -12 12 -44 18 -114 9 -114 -6 0 -19 19 -31 43 -18 36 -21
38 -22 17 0 -20 -4 -16 -19 20 -18 43 -25 38 -21 -15 2 -17 0 -17 -13 5 -36
59 -49 99 -52 163 -2 38 -6 72 -9 78 -4 5 -2 9 3 9 6 0 14 -21 20 -47 9 -45
10 -46 11 -13 0 19 -9 55 -20 80 -19 44 -19 44 0 25 10 -11 26 -49 35 -85 14
-57 15 -59 10 -17 -3 26 -11 70 -18 98 -7 27 -9 52 -4 55 4 3 11 -10 15 -28 7
-32 7 -32 13 -8 6 22 8 20 23 -25 l16 -50 -4 45 -5 45 19 -50 c21 -54 27 -51
11 5 -7 24 -6 36 1 41 8 5 8 12 0 27 -6 11 -11 27 -11 34 1 7 7 -2 15 -20 8
-18 12 -39 8 -47z m131 10 c7 -48 -8 -19 -18 35 -5 23 -4 30 2 20 5 -8 12 -33
16 -55z m371 -55 c6 -25 6 -25 -10 2 -8 15 -18 49 -20 75 l-5 48 15 -50 c8
-27 17 -61 20 -75z m63 85 c-3 -3 -9 2 -12 12 -6 14 -5 15 5 6 7 -7 10 -15 7
-18z m-469 -25 c0 -10 -3 -8 -9 5 -12 27 -12 43 0 25 5 -8 9 -22 9 -30z m430
-35 c1 -11 8 -32 15 -47 8 -16 11 -28 6 -28 -10 0 -40 93 -39 119 1 22 17 -17
18 -44z m-942 -17 c-3 -7 -5 -2 -5 12 0 14 2 19 5 13 2 -7 2 -19 0 -25z m724
-11 c1 -31 1 -31 9 -7 5 15 8 19 9 8 1 -9 -4 -29 -11 -45 l-11 -28 -8 40 c-11
56 -11 77 1 70 6 -3 10 -21 11 -38z m88 -56 c7 -5 12 -14 9 -21 -6 -19 -34 29
-41 70 l-6 35 12 -38 c7 -21 19 -42 26 -46z m-225 -7 c19 -18 19 -18 14 9 -8
42 4 23 30 -46 19 -54 22 -46 6 18 -5 19 -4 19 7 1 6 -10 13 -41 14 -69 l3
-51 -19 25 c-10 13 -21 35 -24 47 -3 13 -16 33 -29 45 -28 27 -46 60 -45 84 0
11 5 6 12 -13 7 -17 21 -39 31 -50z m462 -44 c5 -20 4 -23 -6 -13 -17 15 -42
112 -33 127 4 6 13 -11 20 -39 6 -27 15 -61 19 -75z m84 43 c0 -8 7 -27 15
-41 12 -24 45 -129 45 -147 0 -22 -19 12 -30 52 -17 66 -42 135 -53 151 -7 9
-6 11 7 6 9 -3 16 -13 16 -21z m-876 -48 c4 -20 3 -25 -3 -15 -5 8 -11 31 -15
50 -7 41 7 13 18 -35z m13 43 c-3 -8 -6 -5 -6 6 -1 11 2 17 5 13 3 -3 4 -12 1
-19z m502 -48 c1 -13 0 -13 -9 0 -5 8 -9 24 -9 35 l0 20 9 -20 c5 -11 9 -27 9
-35z m366 -52 c7 -21 9 -38 4 -38 -13 0 -29 46 -34 99 -5 46 -5 46 6 11 6 -19
17 -52 24 -72z m153 57 c-3 -3 -9 2 -12 12 -6 14 -5 15 5 6 7 -7 10 -15 7 -18z
m-398 -9 c0 -8 3 -21 6 -30 3 -9 1 -16 -5 -16 -6 0 -11 7 -11 16 0 8 -4 13 -9
10 -5 -4 -7 3 -4 14 6 23 23 27 23 6z m-116 -144 c3 -2 0 -10 -7 -17 -9 -10
-14 -9 -25 4 -12 14 -13 13 -8 -9 4 -14 9 -45 12 -70 4 -35 3 -41 -6 -28 -10
17 -34 218 -25 226 2 2 9 -11 14 -29 9 -30 10 -28 6 21 l-5 55 20 -74 c11 -41
22 -76 24 -79z m220 33 l6 -40 -14 40 c-7 22 -16 54 -19 70 l-6 30 14 -30 c7
-17 16 -48 19 -70z m236 -36 c6 -10 7 -19 2 -19 -10 0 -32 69 -31 96 1 11 5 2
10 -19 5 -21 14 -47 19 -58z m154 75 c3 -8 2 -12 -4 -9 -6 3 -10 10 -10 16 0
14 7 11 14 -7z m-1326 -19 c-3 -3 -9 2 -12 12 -6 14 -5 15 5 6 7 -7 10 -15 7
-18z m747 -63 c2 2 0 21 -5 43 -7 33 -7 37 4 23 7 -10 18 -43 25 -73 7 -31 15
-54 18 -52 2 3 0 22 -6 44 -6 21 -11 49 -10 63 1 17 5 11 13 -20 18 -64 26
-80 23 -42 -5 41 7 29 21 -23 26 -96 25 -92 9 -72 -11 14 -16 15 -20 5 -4 -8
-8 -5 -12 9 -4 13 -11 20 -16 17 -5 -3 -14 6 -20 20 -7 14 -18 27 -25 30 -8 3
-14 4 -14 3 0 -1 7 -27 15 -57 15 -58 14 -79 -2 -33 -26 73 -30 92 -22 100 5
5 5 24 -1 43 -16 56 -10 70 6 16 9 -26 17 -46 19 -44z m459 9 c9 -35 14 -66
12 -68 -6 -6 -36 95 -36 120 0 31 6 17 24 -52z m56 -70 c5 -19 7 -37 5 -39 -8
-9 -26 53 -31 103 l-4 50 11 -40 c5 -22 14 -56 19 -74z m44 84 c3 -8 1 -15 -3
-15 -5 0 -11 7 -15 15 -3 8 -1 15 3 15 5 0 11 -7 15 -15z m109 -15 c3 -11 1
-20 -4 -20 -5 0 -9 9 -9 20 0 11 2 20 4 20 2 0 6 -9 9 -20z m-423 -40 c0 -16
5 -32 11 -36 8 -4 9 1 4 16 -5 15 -3 20 3 16 6 -3 10 -19 10 -35 -1 -41 -27
-35 -33 8 -4 20 -8 44 -10 54 -2 9 1 15 6 11 5 -3 9 -18 9 -34z m300 26 c0
-11 20 -104 25 -118 4 -10 3 -18 -3 -18 -5 0 -15 24 -22 53 -6 28 -14 60 -17
70 -2 9 0 17 6 17 6 0 11 -2 11 -4z m-1172 -42 c-3 -14 -5 -12 -10 9 -3 19 -2
25 4 19 6 -6 8 -18 6 -28z m971 -38 c2 -25 -18 13 -23 44 l-6 35 14 -35 c8
-19 15 -39 15 -44z m-26 -22 c4 -4 7 -17 7 -28 0 -41 -28 16 -34 69 l-6 50 13
-42 c6 -23 15 -45 20 -49z m327 46 c0 -13 -1 -13 -10 0 -5 8 -10 22 -10 30 0
13 1 13 10 0 5 -8 10 -22 10 -30z m-41 -36 c5 -27 13 -57 16 -66 4 -10 3 -18
-3 -18 -10 0 -32 83 -32 122 0 34 9 16 19 -38z m-464 -53 c5 -21 4 -31 -3 -27
-5 3 -13 23 -16 43 -4 21 -9 47 -11 58 -3 11 1 7 9 -10 7 -16 17 -45 21 -64z
m-716 -25 c15 -38 6 -46 -12 -9 -18 35 -28 88 -19 98 4 4 10 -8 13 -27 3 -18
11 -46 18 -62z m1229 29 c0 -29 0 -29 -8 -5 -4 14 -8 36 -8 50 -1 23 0 23 8 5
5 -11 8 -33 8 -50z m-301 23 c-3 -8 -6 -5 -6 6 -1 11 2 17 5 13 3 -3 4 -12 1
-19z m76 -55 c4 -3 7 7 7 23 l0 29 21 -34 c11 -19 24 -57 29 -85 15 -92 -18
-97 -38 -6 -9 41 -10 42 -11 13 -2 -62 -36 -33 -50 43 -5 27 -13 58 -16 69 -5
14 -4 16 2 7 8 -10 13 -10 24 4 13 15 15 14 20 -20 3 -20 9 -39 12 -43z m-153
46 c0 -6 -4 -7 -10 -4 -5 3 -10 11 -10 16 0 6 5 7 10 4 6 -3 10 -11 10 -16z
m-85 -98 c-6 -5 -25 48 -31 84 -3 17 4 5 15 -25 11 -30 18 -57 16 -59z m313
34 c0 -16 -2 -15 -8 5 -4 14 -8 34 -8 45 0 16 2 15 8 -5 4 -14 8 -34 8 -45z
m-129 0 c1 -17 -1 -17 -9 -5 -5 8 -9 26 -9 40 0 23 1 23 9 5 5 -11 9 -29 9
-40z m338 -22 c6 -23 6 -40 2 -37 -5 2 -11 21 -14 42 -4 20 -9 46 -11 57 l-4
20 9 -20 c5 -11 13 -39 18 -62z m-1327 46 c0 -6 -4 -7 -10 -4 -5 3 -10 11 -10
16 0 6 5 7 10 4 6 -3 10 -11 10 -16z m618 -21 c11 -44 26 -159 16 -123 -27
100 -41 165 -34 165 4 0 12 -19 18 -42z m216 -19 c15 -56 13 -80 -2 -38 -11
28 -23 104 -16 97 2 -3 11 -29 18 -59z m536 8 c0 -17 4 -48 10 -66 5 -19 8
-37 5 -39 -2 -2 -8 13 -14 34 -20 80 -23 104 -12 104 6 0 11 -15 11 -33z
m-775 -43 c8 -32 19 -88 24 -124 5 -36 13 -74 17 -85 5 -16 4 -18 -6 -8 -10 9
-58 229 -60 272 0 27 9 5 25 -55z m375 21 c0 -5 -5 -3 -10 5 -5 8 -10 20 -10
25 0 6 5 3 10 -5 5 -8 10 -19 10 -25z m570 0 c0 -5 -5 -3 -10 5 -5 8 -10 20
-10 25 0 6 5 3 10 -5 5 -8 10 -19 10 -25z m-101 -125 c0 -13 -1 -13 -8 0 -13
22 -30 123 -23 135 5 9 30 -99 31 -135z m-295 98 c21 -41 21 -72 0 -38 l-15
25 6 -30 c3 -16 7 -46 9 -65 3 -19 10 -68 16 -109 13 -94 6 -105 -10 -14 -41
243 -43 306 -6 231z m-248 -75 c-5 -6 -26 65 -25 87 0 8 7 -7 15 -34 9 -26 13
-50 10 -53z m345 42 c6 -25 15 -42 20 -39 12 7 11 -3 -3 -29 -11 -22 -12 -22
-25 8 l-14 30 5 -32 c7 -42 -10 -43 -19 -2 -5 23 -9 28 -16 18 -7 -12 -9 -11
-9 1 0 8 -3 26 -7 40 -6 22 -5 23 9 12 14 -11 17 -10 21 5 3 12 5 8 6 -9 0
-16 6 -28 12 -28 8 0 10 12 6 35 -8 50 1 43 14 -10z m-287 -17 c4 -23 11 -47
15 -53 10 -11 43 -196 37 -202 -2 -2 -11 31 -20 74 -9 43 -21 92 -26 108 -10
31 -9 21 6 -110 4 -36 3 -37 -7 -15 -17 39 -30 132 -20 144 5 6 6 30 1 54 -4
23 -4 42 0 42 4 0 10 -19 14 -42z m525 -14 c5 -27 13 -57 16 -66 4 -10 3 -18
-3 -18 -10 0 -32 83 -32 122 0 34 9 16 19 -38z m-502 24 c-3 -8 -6 -5 -6 6 -1
11 2 17 5 13 3 -3 4 -12 1 -19z m329 -56 c10 -32 12 -34 14 -12 2 17 7 7 15
-29 14 -55 8 -111 -6 -61 -7 25 -7 25 -8 -3 -1 -40 -18 -24 -27 26 -9 49 -11
128 -4 120 3 -2 10 -21 16 -41z m228 1 c3 -27 9 -61 12 -78 5 -20 3 -27 -4
-20 -9 10 -32 101 -32 130 0 8 4 15 9 15 4 0 11 -21 15 -47z m-467 15 c-3 -8
-6 -5 -6 6 -1 11 2 17 5 13 3 -3 4 -12 1 -19z m-420 -30 c-3 -8 -6 -5 -6 6 -1
11 2 17 5 13 3 -3 4 -12 1 -19z m947 -88 c5 -33 4 -41 -4 -28 -6 9 -12 45 -15
80 -4 50 -3 56 4 28 5 -19 12 -55 15 -80z m-461 -38 c4 -19 3 -31 -2 -27 -10
5 -42 133 -40 157 1 16 33 -83 42 -130z m138 111 c-12 -20 -14 -14 -5 12 4 9
9 14 11 11 3 -2 0 -13 -6 -23z m-223 -53 c0 -22 -1 -22 -8 5 -4 17 -8 39 -8
50 0 16 2 15 8 -5 4 -14 8 -36 8 -50z m320 15 c0 -16 -2 -15 -8 5 -11 34 -11
60 0 35 5 -11 8 -29 8 -40z m-439 -54 c7 -35 10 -65 7 -68 -7 -7 -25 64 -31
123 -7 66 9 30 24 -55z m154 69 c3 -11 1 -18 -4 -14 -5 3 -9 12 -9 20 0 20 7
17 13 -6z m346 -36 c1 -12 8 -27 16 -34 8 -7 15 -25 15 -41 0 -15 5 -31 10
-34 6 -4 10 14 11 47 1 45 2 49 9 25 15 -48 23 -157 12 -157 -5 0 -12 15 -16
33 -5 25 -9 29 -16 17 -8 -13 -10 -12 -10 3 0 9 -5 16 -11 15 -6 -2 -17 13
-24 32 l-13 35 -4 -30 c-5 -25 -4 2 2 130 l1 20 9 -20 c5 -11 9 -30 9 -41z
m-399 -25 c13 -76 8 -101 -8 -47 -18 55 -25 118 -14 118 6 0 16 -32 22 -71z
m625 -51 c4 -16 3 -28 -2 -28 -13 0 -36 128 -26 143 4 7 10 -9 14 -38 4 -27
10 -62 14 -77z m-378 90 c-3 -8 -6 -5 -6 6 -1 11 2 17 5 13 3 -3 4 -12 1 -19z
m419 -17 c-3 -5 -1 -34 5 -66 14 -74 4 -83 -11 -10 -11 52 -9 85 5 85 4 0 4
-4 1 -9z m-318 -81 c0 -35 0 -35 -12 10 -7 25 -11 49 -8 54 8 15 21 -25 20
-64z m-321 38 c-3 -8 -6 -5 -6 6 -1 11 2 17 5 13 3 -3 4 -12 1 -19z m706 -83
l5 -60 -13 40 c-15 44 -20 136 -6 100 5 -11 11 -47 14 -80z m57 8 c0 -28 4
-63 10 -77 5 -14 5 -28 0 -31 -11 -7 -30 83 -30 143 0 34 3 43 10 32 5 -8 10
-38 10 -67z m-563 -57 c-7 -20 -27 33 -32 81 l-5 48 20 -59 c11 -33 19 -65 17
-70z m-190 77 c-3 -10 -5 -4 -5 12 0 17 2 24 5 18 2 -7 2 -21 0 -30z m153 -63
c-1 -3 -7 4 -15 14 -8 11 -15 34 -14 50 0 28 2 27 15 -14 7 -25 14 -47 14 -50z
m333 -28 c7 -36 -8 -54 -16 -19 -3 12 -8 47 -12 77 l-5 55 13 -40 c8 -23 17
-55 20 -73z m37 -29 c0 -7 -4 -13 -9 -13 -8 0 -32 100 -30 129 1 17 39 -96 39
-116z m284 76 c13 -84 16 -133 6 -117 -12 20 -27 157 -16 147 4 -4 9 -17 10
-30z m-967 -1 c-3 -8 -6 -5 -6 6 -1 11 2 17 5 13 3 -3 4 -12 1 -19z m-417 -49
c6 -30 15 -81 20 -114 31 -212 112 -657 125 -695 20 -55 45 -184 34 -173 -5 5
-15 37 -24 73 -8 36 -26 108 -40 160 -33 124 -135 733 -135 804 0 24 11 -5 20
-55z m808 -4 c0 -16 -2 -15 -8 5 -11 34 -11 60 0 35 5 -11 8 -29 8 -40z m318
-43 c-10 -9 -13 0 -19 53 l-5 50 15 -48 c8 -27 12 -51 9 -55z m31 26 c6 -40 8
-77 4 -81 -4 -4 -13 24 -19 62 -14 83 -14 91 -4 91 4 0 13 -33 19 -72z m-724
14 c4 -21 3 -31 -3 -27 -6 3 -10 20 -10 37 0 38 5 34 13 -10z m1021 -57 c5
-53 3 -66 -5 -52 -15 25 -25 146 -11 132 5 -5 12 -41 16 -80z m-1634 38 c0
-32 -5 -28 -14 10 -4 19 -3 26 4 22 5 -3 10 -18 10 -32z m520 -40 c0 -25 15
-31 24 -10 3 6 3 2 1 -9 -3 -12 5 -73 19 -135 13 -63 36 -177 51 -254 15 -77
38 -183 51 -235 13 -52 46 -185 73 -295 28 -111 56 -221 65 -245 18 -55 48
-202 42 -207 -4 -5 -20 48 -52 170 -10 37 -21 67 -25 67 -4 0 -3 -15 1 -32 5
-18 22 -87 38 -153 17 -66 44 -174 61 -240 17 -66 31 -127 31 -137 0 -9 9 -33
19 -55 11 -21 29 -83 41 -138 12 -55 26 -115 30 -133 11 -42 -10 -39 -23 4 -9
29 -13 46 -41 159 -8 33 -26 103 -40 155 -14 52 -33 122 -42 155 -9 33 -29
107 -44 165 -16 58 -36 137 -44 175 -9 39 -25 99 -35 135 -37 126 -50 176 -61
240 -10 58 -32 146 -84 345 -9 33 -23 114 -32 180 -9 66 -18 123 -21 128 -3 5
-9 54 -14 110 -4 56 -10 118 -14 137 l-5 35 14 -30 c9 -16 15 -40 16 -52z m22
32 c3 -13 1 -22 -3 -19 -9 5 -13 44 -5 44 2 0 6 -11 8 -25z m815 -7 c-3 -8 -6
-5 -6 6 -1 11 2 17 5 13 3 -3 4 -12 1 -19z m43 -13 c0 -19 4 -35 9 -35 15 0
18 -34 5 -65 -7 -16 -14 -23 -15 -15 0 8 -2 29 -4 47 -1 18 -6 48 -9 68 -4 22
-3 35 4 35 5 0 10 -16 10 -35z m290 -8 c0 -18 4 -49 9 -70 5 -20 5 -39 1 -42
-9 -6 -30 81 -30 126 0 18 4 28 10 24 6 -3 10 -21 10 -38z m-615 -7 c-4 -12
-9 -19 -12 -17 -3 3 -2 15 2 27 4 12 9 19 12 17 3 -3 2 -15 -2 -27z m68 -36
c3 -18 9 -45 13 -60 5 -20 3 -26 -4 -19 -9 9 -42 119 -42 141 0 19 27 -33 33
-62z m-367 -69 c28 -128 8 -108 -25 24 -12 46 -21 89 -21 95 1 22 33 -60 46
-119z m-52 40 l6 -50 -15 50 c-8 28 -15 57 -15 65 1 33 18 -15 24 -65z m746
23 c0 -15 6 -33 14 -41 10 -10 13 -27 8 -58 l-6 -44 -18 70 c-20 78 -24 140
-8 115 5 -8 10 -27 10 -42z m-201 -52 c24 -95 23 -120 -2 -59 -14 37 -35 163
-24 153 2 -3 14 -45 26 -94z m-655 12 c8 -32 11 -58 7 -58 -8 0 -31 91 -30
118 1 21 4 12 23 -60z m81 25 c13 -81 15 -124 6 -119 -9 6 -29 105 -30 144 0
40 17 23 24 -25z m682 25 c-3 -8 -6 -5 -6 6 -1 11 2 17 5 13 3 -3 4 -12 1 -19z
m-882 -72 c3 -34 10 -81 15 -106 5 -25 19 -99 30 -165 28 -159 87 -427 141
-635 4 -19 8 -44 8 -55 -1 -40 -31 49 -55 162 -12 62 -27 120 -32 130 -5 10
-24 93 -42 185 -19 92 -36 166 -38 163 -9 -8 19 -172 52 -305 35 -139 52 -229
43 -220 -7 7 -35 107 -57 205 -42 184 -52 234 -66 315 l-14 85 6 -85 c4 -72
53 -336 71 -388 4 -12 3 -14 -5 -7 -21 20 -63 214 -83 383 -11 95 -26 203 -35
239 -8 36 -13 68 -10 71 3 2 7 -1 10 -9 13 -43 36 -127 39 -144 3 -11 3 2 0
29 -2 27 -11 74 -19 105 -16 61 -19 122 -5 86 9 -21 24 -80 46 -175 7 -30 13
-44 14 -30 0 14 -6 50 -14 80 -19 72 -30 180 -17 161 6 -8 13 -42 17 -75z
m311 23 c16 -63 18 -97 5 -83 -8 8 -31 110 -31 138 0 21 12 -5 26 -55z m-214
-41 c10 -46 32 -148 48 -228 16 -80 36 -174 44 -210 13 -57 14 -82 2 -69 -7 7
-113 496 -123 564 -10 67 9 30 29 -57z m485 70 c-3 -8 -6 -5 -6 6 -1 11 2 17
5 13 3 -3 4 -12 1 -19z m46 -63 l5 -50 -13 40 c-15 44 -20 116 -6 80 4 -11 11
-42 14 -70z m422 8 c17 -70 18 -83 6 -83 -10 0 -16 24 -27 105 -9 65 4 53 21
-22z m280 -73 c5 -19 4 -22 -6 -13 -6 6 -13 45 -15 85 l-3 73 9 -60 c5 -33 12
-71 15 -85z m-375 94 c0 -14 -4 -23 -10 -19 -5 3 -10 15 -10 26 0 10 5 19 10
19 6 0 10 -12 10 -26z m434 -153 c-9 -9 -13 8 -18 79 l-5 75 13 -75 c8 -41 12
-77 10 -79z m-650 123 c3 -8 2 -12 -4 -9 -6 3 -10 10 -10 16 0 14 7 11 14 -7z
m762 -40 c0 -27 4 -80 7 -119 l6 -70 -19 80 c-23 94 -26 169 -8 163 8 -3 13
-25 14 -54z m-609 -69 c11 -17 12 -13 13 33 0 60 16 70 25 15 9 -57 13 -76 21
-102 6 -20 4 -22 -15 -16 -16 5 -21 2 -22 -12 -1 -10 -6 -2 -12 17 -6 19 -16
40 -23 45 -7 6 -15 39 -18 75 l-5 65 12 -50 c7 -27 17 -59 24 -70z m190 83
c-3 -7 -5 -2 -5 12 0 14 2 19 5 13 2 -7 2 -19 0 -25z m41 -63 c0 -34 -1 -36
-8 -15 -4 14 -8 45 -8 70 0 40 1 42 8 15 4 -16 8 -48 8 -70z m325 -15 c7 -89
-8 -76 -18 14 -4 34 -9 70 -12 81 l-5 20 15 -20 c8 -11 17 -54 20 -95z m-423
57 c0 -10 -4 -15 -10 -12 -5 3 -10 18 -10 33 0 21 2 24 10 12 5 -8 10 -23 10
-33z m-1421 -24 c5 -21 12 -63 15 -93 5 -54 5 -55 -8 -20 -14 38 -31 150 -22
150 3 0 9 -17 15 -37z m1954 -16 c-3 -4 0 -13 5 -20 5 -7 12 -48 15 -92 3 -44
2 -73 -2 -65 -9 16 -31 169 -30 204 0 21 1 21 8 1 5 -11 6 -24 4 -28z m-388
-14 c3 -27 9 -59 12 -72 4 -17 2 -22 -6 -17 -6 4 -11 18 -11 31 0 13 -4 27
-10 30 -12 8 -13 75 -1 75 5 0 12 -21 16 -47z m70 -25 c7 -35 13 -53 14 -40 2
35 18 26 25 -15 13 -73 20 -81 26 -33 l6 45 8 -53 c9 -56 20 -63 18 -11 -1 50
18 20 25 -39 4 -36 2 -52 -6 -52 -6 0 -11 7 -11 16 0 13 -3 14 -14 5 -11 -10
-15 -8 -19 6 -2 10 -4 -25 -3 -79 0 -53 -2 -99 -6 -103 -12 -13 -37 21 -46 63
-5 22 -6 57 -3 78 6 36 7 37 14 14 6 -21 9 -22 17 -10 17 26 11 60 -15 84 -14
13 -24 30 -22 37 2 8 2 11 0 6 -3 -4 -9 -4 -14 -1 -9 5 -6 -17 8 -70 3 -11 1
-16 -5 -12 -5 3 -13 27 -17 53 -4 27 -10 55 -15 63 -12 25 -19 90 -9 90 5 0 9
-13 9 -30 0 -16 5 -30 11 -30 8 0 10 15 5 47 -9 66 4 46 19 -29z m-396 12 c0
-9 -4 -8 -9 5 -5 11 -9 27 -9 35 0 9 4 8 9 -5 5 -11 9 -27 9 -35z m-1052 3
c-3 -10 -5 -4 -5 12 0 17 2 24 5 18 2 -7 2 -21 0 -30z m1313 1 c0 -14 -4 -22
-10 -19 -5 3 -10 17 -10 31 0 14 4 22 10 19 6 -3 10 -17 10 -31z m-1521 -24
c1 -13 0 -13 -9 0 -5 8 -9 24 -9 35 l0 20 9 -20 c5 -11 9 -27 9 -35z m1457
-37 c6 -32 8 -34 19 -20 17 23 25 21 25 -5 0 -13 7 -42 15 -66 19 -52 7 -81
-12 -31 l-13 34 5 -37 c7 -45 -10 -52 -20 -8 -4 17 -10 30 -15 30 -8 0 -14 20
-25 98 -8 53 11 58 21 5z m31 15 c-3 -8 -6 -5 -6 6 -1 11 2 17 5 13 3 -3 4
-12 1 -19z m-1107 -228 c6 -58 18 -130 25 -160 8 -30 23 -95 35 -145 11 -49
25 -106 31 -125 30 -106 79 -325 78 -348 -1 -50 -55 148 -118 438 -5 25 -19
83 -31 130 -26 106 -70 401 -62 415 9 15 30 -84 42 -205z m-373 138 c-2 -13
-4 -5 -4 17 -1 22 1 32 4 23 2 -10 2 -28 0 -40z m603 -44 c18 -86 38 -168 95
-394 14 -58 33 -141 42 -185 9 -44 19 -82 23 -85 7 -5 20 -48 46 -150 26 -104
54 -225 53 -235 -1 -27 -58 144 -84 250 -16 66 -32 122 -36 125 -3 3 -14 46
-23 95 -9 50 -32 151 -52 225 -20 74 -40 160 -46 190 -5 30 -16 77 -24 104
-16 56 -30 164 -20 155 4 -4 16 -47 26 -95z m786 87 c17 14 19 12 28 -23 8
-34 -1 -37 -14 -5 -8 20 -9 18 -9 -12 -1 -42 -16 -30 -24 19 -3 19 -3 29 0 22
4 -10 8 -10 19 -1z m-722 -206 c15 -66 35 -149 45 -185 11 -36 25 -90 31 -120
7 -30 16 -65 21 -78 5 -13 9 -33 9 -45 -1 -21 -1 -21 -14 3 -7 14 -21 57 -30
95 -9 39 -36 149 -60 245 -24 96 -46 202 -49 235 l-6 60 14 -45 c7 -25 25 -99
39 -165z m365 144 c12 -60 9 -82 -8 -63 -10 11 -21 124 -11 124 3 0 12 -27 19
-61z m44 -68 c-8 -10 -14 10 -18 60 l-4 54 12 -55 c8 -30 12 -57 10 -59z
m-406 87 c0 -7 5 -32 11 -55 6 -25 6 -43 1 -43 -5 0 -9 3 -9 8 -1 4 -5 26 -9
49 -5 23 -6 45 -3 48 8 7 9 6 9 -7z m1151 -55 c3 67 20 58 28 -15 7 -52 9 -58
14 -33 4 17 2 38 -2 48 -5 10 -8 23 -5 30 5 16 34 -50 39 -91 3 -18 1 -35 -4
-38 -4 -3 -9 -22 -9 -42 l-2 -37 -6 33 c-3 18 -10 33 -16 32 -15 0 -13 -89 2
-134 15 -46 11 -56 -15 -33 -10 10 -24 17 -31 17 -18 0 -41 63 -41 115 0 65
16 55 27 -17 l10 -63 2 58 c0 31 6 57 11 57 17 0 11 25 -11 49 -14 15 -21 35
-21 66 0 71 16 78 23 10 6 -59 6 -59 7 -12z m-203 2 c7 -16 16 -48 20 -70 3
-22 9 -48 12 -59 10 -35 -20 -11 -33 27 -13 37 -30 175 -18 147 4 -8 12 -28
19 -45z m577 -42 c3 -40 2 -73 -2 -73 -9 0 -20 62 -20 120 0 70 17 34 22 -47z
m-263 -50 c1 -24 -3 -43 -9 -43 -6 0 -10 33 -9 83 1 70 2 76 10 42 4 -22 8
-59 8 -82z m-1909 72 c0 -5 -5 -3 -10 5 -5 8 -10 20 -10 25 0 6 5 3 10 -5 5
-8 10 -19 10 -25z m714 -50 c8 -38 32 -128 52 -200 20 -71 42 -155 49 -186 7
-31 17 -72 23 -90 14 -44 25 -119 18 -119 -5 0 -45 129 -68 225 -45 183 -62
246 -78 305 -11 36 -22 85 -26 110 -10 69 11 37 30 -45z m265 48 c-1 -34 -2
-35 -9 -13 -11 36 -11 50 0 50 6 0 10 -17 9 -37z m-660 -105 c5 -51 17 -120
26 -153 10 -33 26 -98 37 -145 25 -108 43 -184 57 -235 11 -42 15 -92 6 -83
-3 3 -12 34 -20 69 -7 35 -25 107 -39 159 -56 214 -87 363 -92 442 -6 111 12
72 25 -54z m1255 42 c4 -26 3 -41 -2 -35 -15 18 -32 92 -25 111 6 16 8 15 13
-6 4 -14 10 -45 14 -70z m-1387 28 c-3 -8 -6 -5 -6 6 -1 11 2 17 5 13 3 -3 4
-12 1 -19z m627 -73 c4 -22 9 -53 12 -69 9 -45 -12 -23 -24 26 -6 24 -14 63
-17 88 -5 43 -5 44 8 20 8 -14 17 -43 21 -65z m1143 17 c6 -31 12 -66 12 -77
1 -17 -1 -18 -14 -4 -9 9 -18 43 -22 85 -7 81 6 79 24 -4z m-1249 -87 c28
-121 99 -399 116 -455 8 -25 20 -70 27 -100 6 -30 15 -59 19 -65 4 -5 15 -46
25 -90 9 -44 19 -88 22 -97 2 -10 0 -18 -5 -18 -4 0 -16 21 -25 48 l-17 47 6
-50 c3 -27 14 -76 25 -108 22 -64 51 -198 46 -204 -6 -5 -24 45 -33 87 -3 19
-17 67 -29 105 -51 156 -108 379 -119 465 l-6 45 21 -55 c11 -30 25 -77 30
-105 13 -64 50 -178 55 -172 3 2 -16 83 -41 178 -105 403 -168 666 -164 689 2
16 30 -68 47 -145z m1285 63 c3 -21 2 -38 -4 -38 -5 0 -9 12 -9 28 0 15 -3 38
-6 52 -4 18 -3 21 4 10 5 -8 12 -32 15 -52z m-1209 -58 c10 -52 22 -104 27
-115 13 -29 27 -79 45 -165 9 -41 22 -91 30 -110 17 -40 48 -149 75 -260 30
-129 61 -244 71 -263 5 -10 6 -22 3 -27 -13 -22 -24 -7 -35 48 -6 31 -24 100
-39 152 -33 112 -44 155 -71 274 -11 49 -24 94 -29 100 -5 6 -17 54 -26 106
-10 52 -27 118 -37 145 -19 47 -48 178 -48 213 0 42 19 -12 34 -98z m76 -5
c-1 -40 -19 9 -24 66 l-6 54 15 -50 c8 -27 15 -59 15 -70z m35 34 c4 -38 3
-48 -4 -33 -14 31 -25 123 -12 103 5 -8 12 -40 16 -70z m-615 43 c0 -10 11
-62 25 -116 30 -119 33 -180 5 -91 -18 53 -50 201 -50 227 0 5 5 6 10 3 6 -3
10 -14 10 -23z m685 -122 c8 -30 14 -68 12 -85 -2 -28 -3 -27 -16 15 -7 25
-17 56 -22 69 -5 12 -12 51 -14 85 l-5 61 15 -45 c8 -25 21 -70 30 -100z
m1065 46 c0 -90 -6 -82 -14 19 -5 56 -4 76 3 65 6 -8 11 -46 11 -84z m-1010
50 c0 -38 12 -86 20 -81 10 6 17 -22 25 -95 7 -60 -7 -52 -20 10 -3 19 -12 49
-20 65 -18 42 -31 140 -16 131 6 -4 11 -18 11 -30z m722 -53 c3 -29 1 -50 -3
-47 -11 7 -29 73 -29 109 0 28 1 28 14 10 7 -11 15 -43 18 -72z m-1665 55 c-3
-8 -6 -5 -6 6 -1 11 2 17 5 13 3 -3 4 -12 1 -19z m1997 -127 l-7 -36 -7 30
c-10 41 -12 119 -3 142 11 27 26 -93 17 -136z m-1845 29 c11 -52 18 -96 16
-99 -7 -7 -24 46 -34 107 -6 31 -13 68 -17 82 -5 17 -3 22 4 15 6 -5 19 -53
31 -105z m935 49 c8 -86 8 -105 -3 -93 -6 5 -15 38 -20 74 -14 82 -14 80 3 80
9 0 15 -20 20 -61z m-178 14 c15 -34 44 -162 44 -188 -1 -26 -24 34 -41 108
-11 45 -22 90 -25 100 -10 32 5 18 22 -20z m1183 -95 c1 -21 -3 -38 -8 -38
-15 0 -24 77 -15 128 l8 47 7 -50 c4 -27 8 -67 8 -87z m-1910 65 c7 -32 21
-84 31 -115 20 -61 45 -207 37 -215 -3 -2 -15 40 -27 94 -12 54 -30 125 -40
158 -24 78 -33 135 -22 135 5 0 14 -26 21 -57z m821 2 c11 -14 34 -149 28
-166 -6 -16 -32 70 -46 148 -5 29 -6 55 -3 59 3 3 8 -2 10 -13 2 -10 7 -22 11
-28z m1378 -55 c0 -50 -2 -58 -8 -35 -11 43 -11 146 0 120 5 -11 8 -49 8 -85z
m-2401 68 c-3 -8 -6 -5 -6 6 -1 11 2 17 5 13 3 -3 4 -12 1 -19z m1284 -103 c2
-5 0 -12 -6 -15 -10 -5 -24 56 -23 105 0 21 4 14 13 -25 7 -30 14 -59 16 -65z
m-48 45 c4 -36 3 -48 -3 -35 -8 19 -14 103 -6 94 2 -2 6 -29 9 -59z m-149 -70
c6 -43 6 -44 -9 -23 -8 12 -17 50 -20 85 l-5 63 14 -40 c7 -22 16 -60 20 -85z
m975 45 c0 -22 -4 -47 -9 -55 -5 -8 -10 -13 -10 -10 -7 54 -8 109 -3 125 6 20
6 20 14 0 4 -11 8 -38 8 -60z m-166 -58 c5 -37 4 -48 -6 -45 -12 5 -25 89 -18
123 3 18 5 17 11 -5 4 -14 10 -47 13 -73z m24 71 c-3 -8 -6 -5 -6 6 -1 11 2
17 5 13 3 -3 4 -12 1 -19z m-74 -47 c4 -29 4 -51 1 -48 -10 10 -23 79 -17 94
8 20 9 15 16 -46z m305 -23 c1 -47 -1 -68 -7 -58 -15 25 -18 145 -3 136 4 -2
9 -37 10 -78z m133 -49 c1 -31 -2 -63 -6 -70 -5 -7 -8 -40 -7 -73 1 -55 0 -57
-8 -26 -5 19 -7 94 -3 165 7 132 20 134 24 4z m-1711 33 c0 -9 27 -126 61
-260 33 -134 58 -246 56 -249 -10 -9 -97 292 -97 333 0 12 -9 50 -20 84 -11
35 -23 88 -26 119 l-5 56 15 -34 c9 -18 16 -41 16 -49z m1870 38 c0 -11 -2
-20 -4 -20 -2 0 -6 9 -9 20 -3 11 -1 20 4 20 5 0 9 -9 9 -20z m-250 -31 c0
-16 -4 -29 -10 -29 -5 0 -10 16 -10 36 0 21 4 33 10 29 6 -3 10 -19 10 -36z
m-1031 -69 c7 -41 15 -83 17 -92 3 -10 1 -18 -5 -18 -6 0 -11 12 -11 26 0 14
-5 34 -10 44 -13 24 -25 151 -12 130 5 -8 14 -49 21 -90z m958 58 c-3 -8 -6
-5 -6 6 -1 11 2 17 5 13 3 -3 4 -12 1 -19z m627 -67 l-8 -56 -6 50 c-4 29 -2
60 4 74 9 21 11 22 14 7 2 -10 0 -44 -4 -75z m-3457 32 c-3 -10 -5 -2 -5 17 0
19 2 27 5 18 2 -10 2 -26 0 -35z m30 10 c-3 -10 -5 -4 -5 12 0 17 2 24 5 18 2
-7 2 -21 0 -30z m2923 -25 c0 -93 -17 -108 -22 -19 -1 40 -1 75 1 77 15 14 21
-4 21 -58z m84 -58 c-10 -34 -2 -206 11 -252 6 -22 6 -22 -9 -4 -11 13 -16 41
-16 80 0 34 -5 81 -11 106 -6 27 -8 76 -3 120 l7 75 15 -45 c11 -32 13 -53 6
-80z m-365 40 c0 -11 -3 -10 -14 4 -8 11 -15 31 -14 45 1 26 1 26 14 -4 8 -16
14 -37 14 -45z m-1133 -5 c3 -22 11 -46 18 -54 6 -8 16 -37 22 -65 6 -28 28
-114 48 -191 20 -77 35 -151 35 -165 -2 -23 -2 -24 -6 -2 -2 12 -9 22 -14 22
-5 0 -9 10 -9 23 -1 12 -14 69 -29 127 -81 298 -102 394 -81 360 5 -8 12 -33
16 -55z m1611 28 c-3 -10 -5 -4 -5 12 0 17 2 24 5 18 2 -7 2 -21 0 -30z
m-2227 5 c0 -13 3 -34 7 -48 3 -14 3 -23 0 -20 -11 10 -25 90 -16 90 5 0 9
-10 9 -22z m690 -32 c0 -39 -6 -30 -13 19 -4 27 -3 35 3 25 5 -8 10 -28 10
-44z m1507 22 c-3 -8 -6 -5 -6 6 -1 11 2 17 5 13 3 -3 4 -12 1 -19z m-398 -25
c-1 -21 -3 -30 -6 -20 -2 9 -9 15 -14 11 -5 -3 -7 -10 -4 -15 4 -5 1 -9 -4 -9
-6 0 -11 14 -11 31 0 16 4 28 9 24 5 -3 12 -1 16 5 11 18 15 11 14 -27z
m-1139 -23 c0 -15 4 -30 8 -35 5 -6 18 -48 31 -95 12 -47 27 -93 32 -103 14
-27 68 -247 69 -281 0 -45 -20 6 -48 119 -17 66 -46 176 -65 245 -39 144 -53
213 -38 190 6 -8 11 -26 11 -40z m1489 -64 c-5 -6 -8 12 -8 45 l2 54 7 -45 c4
-25 4 -49 -1 -54z m-1934 -23 c9 -43 25 -107 35 -143 22 -80 60 -244 60 -261
0 -37 -20 18 -44 118 -14 62 -31 124 -36 138 -5 14 -19 70 -30 123 -11 53 -23
106 -26 117 -5 19 -4 19 9 3 8 -10 22 -53 32 -95z m1060 41 c-8 -47 -25 -28
-25 31 0 36 1 38 16 23 13 -12 15 -25 9 -54z m1286 -116 c-7 -16 -10 8 -9 82
l1 105 8 -82 c5 -49 5 -91 0 -105z m-611 96 c0 -12 6 -59 14 -105 8 -46 17
-113 20 -149 9 -99 -11 -61 -28 53 -8 54 -22 109 -30 122 -11 16 -16 47 -16
92 l0 68 20 -30 c11 -16 20 -40 20 -51z m257 14 c0 -24 3 -53 7 -65 4 -12 2
-24 -4 -28 -6 -3 -10 3 -10 15 0 12 -3 19 -7 17 -7 -5 -8 13 -4 91 2 41 19 13
18 -30z m-3095 10 c-7 -7 -12 -8 -12 -2 0 14 12 26 19 19 2 -3 -1 -11 -7 -17z
m2878 -8 c10 -7 21 -140 11 -140 -15 0 -33 57 -33 107 0 61 2 72 9 53 3 -8 9
-17 13 -20z m252 -93 c-9 -18 -11 -10 -10 43 l0 65 11 -43 c7 -29 7 -49 -1
-65z m397 26 c-1 -57 -3 -70 -9 -48 -11 45 -11 125 0 125 6 0 10 -32 9 -77z
m140 40 c0 -33 -1 -35 -9 -15 -8 20 -4 52 6 52 2 0 4 -17 3 -37z m-2670 -53
c1 -26 -16 10 -23 50 l-6 35 14 -35 c8 -19 15 -42 15 -50z m1778 33 c-3 -10
-5 -4 -5 12 0 17 2 24 5 18 2 -7 2 -21 0 -30z m-1563 -268 c31 -130 56 -248
56 -264 -1 -40 -22 27 -65 205 -25 104 -49 199 -55 211 -5 12 -12 46 -15 75
-5 47 -2 41 28 -52 19 -58 42 -136 51 -175z m471 208 c7 -6 15 -33 19 -60 6
-43 15 -77 62 -235 8 -26 14 -57 13 -70 -1 -22 -2 -22 -12 5 -6 15 -14 27 -18
27 -4 0 -10 24 -14 53 -4 28 -15 76 -26 106 -20 55 -47 160 -55 216 l-4 30 12
-30 c6 -16 17 -35 23 -42z m1924 -26 c-1 -51 -3 -65 -9 -47 -12 37 -12 132 0
125 6 -3 10 -39 9 -78z m-1825 -37 c10 -47 22 -91 28 -97 6 -7 16 -36 23 -65
8 -32 13 -43 14 -28 1 30 -18 103 -29 110 -4 3 -11 39 -14 80 -7 78 6 81 18 5
12 -69 28 -78 23 -12 -6 58 8 80 18 30 13 -62 29 -118 34 -123 20 -17 74 -239
62 -254 -5 -6 -9 -53 -10 -105 0 -78 2 -96 17 -107 9 -7 13 -13 7 -14 -24 0
-37 20 -38 63 -1 25 -5 43 -8 41 -4 -2 -7 13 -7 34 1 44 -38 212 -52 226 -15
15 -13 -3 15 -110 28 -107 29 -114 16 -114 -4 0 -16 26 -25 58 -10 31 -22 71
-27 87 -42 128 -80 262 -88 316 -13 79 -13 86 -3 74 5 -6 17 -48 26 -95z
m1503 63 c-3 -21 -2 -58 3 -83 9 -49 6 -60 -12 -42 -18 18 -30 114 -16 140 18
34 31 26 25 -15z m-988 -83 c0 -29 -2 -31 -9 -14 -8 21 -14 85 -10 114 3 23
19 -60 19 -100z m46 25 c5 -52 3 -66 -4 -53 -16 23 -27 146 -13 133 6 -5 14
-41 17 -80z m882 63 c-3 -8 -6 -5 -6 6 -1 11 2 17 5 13 3 -3 4 -12 1 -19z
m-1582 -31 c4 -17 10 -34 14 -37 7 -6 39 -120 55 -200 6 -30 14 -59 18 -65 8
-13 22 -105 15 -105 -8 0 -54 150 -72 235 -9 43 -25 104 -35 136 -22 64 -25
83 -11 74 5 -3 13 -20 16 -38z m-1648 11 c-3 -8 -6 -5 -6 6 -1 11 2 17 5 13 3
-3 4 -12 1 -19z m1798 -213 c32 -110 65 -237 65 -250 -1 -5 -7 -1 -15 9 -31
41 -141 438 -129 465 7 16 15 -7 79 -224z m1895 147 c0 -53 -3 -72 -10 -62
-13 20 -13 153 0 145 6 -3 10 -41 10 -83z m60 79 c0 -6 -4 -13 -10 -16 -5 -3
-10 1 -10 9 0 9 5 16 10 16 6 0 10 -4 10 -9z m-1257 -93 c9 -6 8 -11 -3 -17
-26 -17 -41 40 -22 86 5 13 8 7 10 -22 2 -22 9 -43 15 -47z m484 -46 c-5 -6
-7 -31 -3 -55 l6 -42 -17 30 c-18 32 -32 201 -15 177 7 -11 11 -10 17 5 6 13
11 1 15 -42 4 -34 2 -65 -3 -73z m95 51 c3 -35 1 -63 -4 -63 -4 0 -8 33 -7 73
1 84 6 79 11 -10z m-3105 45 c-3 -8 -6 -5 -6 6 -1 11 2 17 5 13 3 -3 4 -12 1
-19z m1995 -92 c-9 -16 -21 27 -20 74 l0 45 12 -55 c7 -30 10 -59 8 -64z
m1368 42 c0 -27 4 -48 9 -48 5 0 9 6 8 13 -3 76 18 91 28 20 4 -27 9 -56 11
-65 4 -13 1 -16 -10 -12 -10 4 -16 1 -16 -7 -1 -23 -40 63 -51 109 -5 24 -6
48 -3 54 11 18 24 -15 24 -64z m-738 -51 c7 -22 14 -33 19 -26 7 12 13 -12 23
-86 2 -22 2 -32 0 -22 -3 9 -10 15 -15 12 -5 -4 -9 2 -9 12 0 15 -2 16 -10 3
-7 -11 -10 -1 -10 35 l-1 50 -19 -24 c-12 -14 -20 -39 -21 -65 -2 -67 -17 -4
-18 74 0 61 1 64 14 40 14 -24 14 -23 15 31 0 62 14 90 18 37 1 -18 7 -50 14
-71z m831 -10 c3 -31 2 -55 -3 -52 -5 3 -11 -5 -13 -17 -2 -13 -4 24 -5 82 0
109 11 102 21 -13z m-1283 76 c0 -10 3 -36 7 -57 5 -31 3 -37 -7 -31 -10 6
-12 -4 -7 -51 5 -56 5 -58 -8 -29 -17 36 -19 81 -5 90 7 4 8 24 4 51 -4 30 -3
44 5 44 6 0 11 -8 11 -17z m1629 -106 c1 -16 -3 -26 -9 -22 -5 3 -9 39 -9 78
l2 72 7 -50 c5 -27 9 -63 9 -78z m-1056 70 c3 -22 2 -35 -4 -32 -5 4 -9 22 -9
42 0 45 5 40 13 -10z m1094 21 c-3 -8 -6 -5 -6 6 -1 11 2 17 5 13 3 -3 4 -12
1 -19z m-1630 -20 c-3 -7 -5 -2 -5 12 0 14 2 19 5 13 2 -7 2 -19 0 -25z m-933
-58 c10 -36 28 -110 40 -165 12 -55 27 -109 33 -120 12 -24 23 -126 12 -120
-4 3 -10 32 -14 65 -4 33 -10 60 -15 60 -9 0 -9 0 -55 180 -34 133 -44 193
-26 175 4 -6 16 -39 25 -75z m2276 -8 c0 -31 -4 -75 -8 -97 -7 -40 -7 -40 -12
20 -6 76 -1 147 11 139 5 -3 9 -31 9 -62z m-1568 -6 c4 3 10 -7 14 -22 3 -16
10 -42 14 -59 8 -27 8 -28 9 -5 0 14 -4 44 -8 67 -4 23 -4 48 0 55 7 10 9 9 9
-5 0 -25 24 -97 31 -97 4 0 10 -22 14 -50 4 -27 11 -50 16 -50 11 0 11 14 0
63 -8 35 0 52 13 25 4 -7 4 21 2 62 -4 61 -3 68 5 36 12 -52 16 -216 5 -216
-5 0 -7 -52 -4 -117 4 -108 3 -113 -9 -77 -8 21 -15 67 -16 101 -2 37 -8 68
-16 75 -11 11 -12 3 -7 -45 4 -35 3 -56 -3 -53 -5 3 -3 -15 5 -41 16 -54 18
-87 4 -78 -5 3 -10 17 -10 30 0 13 -4 27 -10 30 -5 3 -10 15 -10 26 0 10 -5
19 -11 19 -7 0 -9 11 -5 30 3 17 1 30 -4 30 -6 0 -10 5 -10 11 0 5 5 7 10 4
14 -9 12 27 -4 77 -8 24 -18 61 -22 83 -4 22 -13 52 -20 67 -8 15 -14 42 -13
60 l1 33 12 -38 c6 -21 15 -35 18 -31z m1508 -6 c-10 -6 -11 -12 -3 -22 6 -8
7 -21 2 -33 -4 -11 -8 -38 -10 -60 l-2 -40 -7 45 c-7 45 -6 66 6 130 7 34 7
34 17 12 8 -18 7 -26 -3 -32z m-2355 -41 c7 -67 -9 -36 -19 36 -4 34 -3 45 3
34 5 -8 12 -40 16 -70z m1124 -19 c0 -23 -1 -24 -9 -4 -9 22 -14 69 -10 94 3
19 19 -57 19 -90z m1705 -10 c1 -38 -2 -70 -6 -70 -5 0 -8 35 -8 77 0 95 12
90 14 -7z m-1357 38 c-3 -8 -6 -5 -6 6 -1 11 2 17 5 13 3 -3 4 -12 1 -19z
m-1037 -30 c0 -38 -5 -34 -13 10 -4 21 -3 31 3 27 6 -3 10 -20 10 -37z m2029
-41 c1 -17 -3 -26 -9 -22 -5 3 -9 30 -9 58 1 45 2 48 9 22 4 -16 8 -43 9 -58z
m40 6 l-1 -78 -10 64 c-8 60 -6 91 7 91 3 0 4 -35 4 -77z m-349 7 c16 -8 19
-17 14 -38 -9 -36 -24 -52 -24 -25 0 11 -7 26 -15 33 -9 7 -15 28 -14 49 0 31
2 33 9 14 5 -12 18 -27 30 -33z m410 -43 c0 -60 -8 -97 -21 -97 -10 0 -12 103
-3 137 10 38 24 15 24 -40z m-2097 -32 c8 -27 18 -66 22 -85 12 -64 48 -180
56 -180 4 0 10 -19 14 -42 3 -24 9 -56 12 -73 8 -44 -14 -19 -26 30 -5 22 -17
68 -25 103 -9 35 -20 71 -25 80 -10 20 -61 205 -61 224 0 23 17 -7 33 -57z
m826 0 c0 -26 -2 -27 -9 -10 -5 11 -9 34 -9 50 0 26 2 27 9 10 5 -11 9 -33 9
-50z m361 -100 c-1 -103 -18 -60 -25 61 -5 98 -5 99 10 54 8 -25 15 -76 15
-115z m1343 67 c3 -36 1 -60 -4 -56 -5 3 -9 33 -9 66 0 77 6 72 13 -10z
m-1589 -9 c14 -123 16 -204 6 -198 -6 3 -10 13 -10 21 0 8 -4 14 -10 14 -5 0
-14 15 -19 33 l-9 32 -1 -30 c-1 -31 -16 -25 -23 9 -6 38 -28 30 -29 -11 l-1
-38 -9 34 c-7 22 -7 43 0 64 6 16 11 47 11 68 0 47 20 53 21 7 l1 -33 13 40
13 40 1 -35 c2 -55 18 -71 26 -27 4 21 5 46 2 57 -3 11 -2 20 3 20 4 0 10 -30
14 -67z m-1070 -88 c9 -33 23 -81 31 -106 8 -26 15 -54 15 -63 0 -9 7 -16 15
-16 11 0 15 -13 15 -53 0 -29 4 -57 9 -63 10 -10 43 -175 36 -182 -6 -6 -25
44 -32 83 -3 17 -15 62 -28 101 -13 39 -27 92 -30 118 -4 25 -11 43 -17 40
-10 -6 -3 -55 12 -89 10 -22 54 -198 64 -257 8 -47 -10 -51 -19 -5 -4 17 -11
37 -15 42 -4 6 -13 42 -19 80 -7 39 -17 84 -23 100 -22 66 -27 83 -47 160 -11
44 -23 98 -26 120 -5 38 -4 37 14 -15 11 -30 22 -69 26 -87 3 -18 11 -35 17
-39 13 -9 3 70 -17 127 -8 22 -17 63 -20 92 l-5 52 14 -40 c8 -22 21 -67 30
-100z m1276 49 c0 -41 -4 -74 -9 -74 -16 0 -29 138 -15 153 16 16 24 -10 24
-79z m1037 -6 c-2 -18 -4 -6 -4 27 0 33 2 48 4 33 2 -15 2 -42 0 -60z m-2390
40 c-3 -7 -5 -2 -5 12 0 14 2 19 5 13 2 -7 2 -19 0 -25z m346 -16 c4 -21 3
-31 -3 -27 -6 3 -10 20 -10 37 0 38 5 34 13 -10z m2102 -53 c-5 -70 -15 -55
-14 22 1 56 3 67 9 46 5 -15 7 -45 5 -68z m372 -21 c-2 -24 -4 -7 -4 37 0 44
2 63 4 43 2 -21 2 -57 0 -80z m-1388 60 c-1 -31 -1 -31 -8 -8 -5 14 -6 28 -4
33 9 15 13 6 12 -25z m678 -25 c-3 -10 -5 -4 -5 12 0 17 2 24 5 18 2 -7 2 -21
0 -30z m-3620 -15 c-3 -7 -5 -2 -5 12 0 14 2 19 5 13 2 -7 2 -19 0 -25z m3040
10 c-3 -8 -6 -5 -6 6 -1 11 2 17 5 13 3 -3 4 -12 1 -19z m1022 -66 c1 -33 -3
-51 -9 -47 -5 3 -10 36 -9 73 1 81 17 57 18 -26z m360 17 c-1 -52 -5 -67 -11
-54 -9 16 -2 125 8 125 3 0 4 -32 3 -71z m-422 29 c-3 -8 -6 -5 -6 6 -1 11 2
17 5 13 3 -3 4 -12 1 -19z m-347 -50 c-1 -38 -3 -48 -10 -37 -8 14 -3 89 6 89
2 0 4 -24 4 -52z m-1783 -96 c4 -43 3 -63 -4 -59 -5 4 -13 35 -17 69 -3 35 -8
77 -11 93 l-5 30 15 -34 c9 -18 19 -63 22 -99z m-429 58 l0 -25 -8 25 c-4 14
-8 34 -8 45 l-1 20 9 -20 c5 -11 8 -31 8 -45z m462 3 c0 -17 5 -35 10 -38 6
-3 10 -14 10 -23 0 -14 -2 -14 -14 -2 -8 8 -18 40 -21 70 -5 40 -4 51 4 40 6
-8 11 -29 11 -47z m46 9 c11 -58 41 -135 48 -124 3 6 2 30 -4 54 -17 77 -9 84
16 13 17 -48 24 -83 20 -109 -4 -38 37 -214 54 -226 4 -3 7 -12 8 -20 2 -36
15 -98 28 -133 17 -45 18 -57 3 -57 -5 0 -8 4 -4 9 3 6 -4 26 -15 46 -11 19
-20 42 -20 49 0 7 -10 24 -21 37 l-21 24 7 -35 c13 -62 -20 -18 -39 52 -10 35
-23 74 -28 88 -6 14 -12 65 -15 115 -2 49 -9 110 -14 135 -20 91 -26 129 -18
124 5 -2 11 -21 15 -42z m344 33 c0 -8 -4 -15 -10 -15 -5 0 -10 7 -10 15 0 8
5 15 10 15 6 0 10 -7 10 -15z m1547 -7 c-3 -8 -6 -5 -6 6 -1 11 2 17 5 13 3
-3 4 -12 1 -19z m-2098 -108 c0 -25 0 -25 -9 -3 -5 13 -12 46 -15 75 l-5 53
15 -50 c8 -27 14 -61 14 -75z m2468 35 c1 -44 -2 -75 -7 -75 -6 0 -10 36 -10
82 0 100 13 95 17 -7z m-2375 -28 c6 -34 14 -66 18 -72 9 -12 25 -82 17 -75
-15 14 -49 128 -61 205 -5 31 -4 36 4 22 6 -9 16 -45 22 -80z m1866 57 c2 -16
8 -31 12 -34 13 -8 17 -134 5 -138 -5 -2 -11 5 -13 15 -8 51 -13 62 -26 57
-16 -6 -31 67 -15 77 6 3 10 12 9 20 -4 28 0 41 13 37 6 -3 14 -18 15 -34z
m462 -94 c-5 -19 -8 -10 -12 35 -3 33 -3 67 1 75 9 22 19 -80 11 -110z m-2513
58 c-3 -8 -6 -5 -6 6 -1 11 2 17 5 13 3 -3 4 -12 1 -19z m2850 -40 c-2 -13 -4
-3 -4 22 0 25 2 35 4 23 2 -13 2 -33 0 -45z m-2981 -25 c9 -43 29 -126 44
-186 16 -59 24 -109 20 -112 -4 -3 -10 8 -13 23 -2 15 -17 67 -31 116 -15 50
-32 113 -37 140 -5 28 -12 61 -15 74 -2 12 0 22 5 22 5 0 17 -35 27 -77z
m2298 61 c11 -29 7 -164 -5 -164 -8 0 -9 -15 -4 -47 5 -35 4 -45 -5 -37 -6 6
-10 40 -9 80 0 38 0 95 0 127 -2 54 10 75 23 41z m45 -26 c1 -5 -3 -8 -9 -8
-5 0 -10 12 -9 28 0 24 1 25 9 7 5 -11 9 -23 9 -27z m732 -18 l-9 -45 -1 46
c-1 25 2 49 6 53 12 12 13 -6 4 -54z m46 38 c-3 -8 -6 -5 -6 6 -1 11 2 17 5
13 3 -3 4 -12 1 -19z m-3169 -58 c0 -32 -1 -33 -8 -10 -4 14 -8 39 -8 55 -1
25 1 27 8 10 5 -11 8 -36 8 -55z m2299 -42 c-2 -18 -4 -4 -4 32 0 36 2 50 4
33 2 -18 2 -48 0 -65z m-1840 50 c-3 -8 -6 -5 -6 6 -1 11 2 17 5 13 3 -3 4
-12 1 -19z m2810 -25 c-3 -10 -5 -4 -5 12 0 17 2 24 5 18 2 -7 2 -21 0 -30z
m-2827 -43 c7 -33 16 -60 20 -60 4 0 10 -19 14 -42 4 -23 11 -45 16 -48 10 -6
30 -98 29 -134 0 -24 -16 15 -44 109 -9 33 -21 69 -25 80 -24 58 -43 155 -31
155 4 0 14 -27 21 -60z m-195 -95 c5 -38 5 -38 -5 -10 -24 70 -30 93 -29 121
0 23 3 20 15 -21 8 -27 17 -68 19 -90z m2671 113 c-3 -13 -6 -42 -6 -65 0 -24
-4 -43 -10 -43 -6 0 -10 28 -10 65 0 53 3 65 16 65 12 0 15 -6 10 -22z m-2647
-51 c1 -10 -3 -15 -9 -12 -5 3 -10 23 -9 43 1 33 2 34 9 12 4 -14 8 -33 9 -43z
m2951 7 c0 -19 -4 -34 -10 -34 -5 0 -10 18 -10 41 0 24 4 38 10 34 6 -3 10
-22 10 -41z m-2620 -21 c-1 -31 -3 -35 -11 -20 -6 9 -7 26 -4 37 10 30 15 24
15 -17z m1557 -25 c-3 -7 -5 -2 -5 12 0 14 2 19 5 13 2 -7 2 -19 0 -25z m109
-4 c-4 -9 -9 -15 -11 -12 -3 3 -3 13 1 22 4 9 9 15 11 12 3 -3 3 -13 -1 -22z
m-286 -3 c0 -11 5 -23 11 -26 6 -4 8 -12 6 -19 -2 -6 -1 -36 3 -66 4 -30 4
-59 -1 -64 -5 -6 -9 -1 -9 12 0 11 -6 25 -14 29 -8 4 -16 17 -19 28 -4 19 -5
19 -6 -1 0 -12 6 -41 14 -64 16 -46 21 -106 6 -80 -5 8 -11 32 -15 53 -4 20
-11 37 -16 37 -6 0 -10 35 -10 77 0 72 11 89 23 38 3 -11 5 -1 6 23 1 40 21
62 21 23z m-1545 -38 c4 -21 10 -42 15 -48 12 -16 28 -125 18 -131 -9 -6 -10
-4 -32 96 -9 41 -19 85 -22 98 -4 12 -2 22 4 22 5 0 13 -17 17 -37z m1854 -7
c-2 -11 6 -38 20 -66 6 -13 7 -135 1 -150 -1 -3 -8 13 -15 35 l-13 40 -1 -37
c-1 -37 -14 -51 -24 -25 -2 6 -2 60 1 119 4 85 7 105 18 101 8 -3 14 -10 13
-17z m388 -18 c-3 -8 -6 -5 -6 6 -1 11 2 17 5 13 3 -3 4 -12 1 -19z m-2307
-54 c6 -22 10 -53 8 -69 -3 -25 -6 -19 -17 30 -7 33 -17 68 -22 77 -13 26 -11
32 5 15 8 -7 20 -31 26 -53z m2275 38 c1 -9 2 -33 3 -54 2 -31 5 -35 22 -31
11 3 20 11 20 19 0 17 21 29 29 16 3 -6 3 -50 -2 -99 -4 -48 -7 -108 -7 -131
1 -28 -3 -41 -10 -37 -5 3 -10 13 -10 21 0 8 -4 14 -10 14 -5 0 -10 11 -10 24
0 14 -4 28 -10 31 -13 8 -13 -1 0 -45 8 -28 7 -36 -5 -43 -11 -6 -14 -17 -10
-40 6 -32 -8 -87 -22 -87 -5 0 -13 16 -19 35 -6 19 -7 35 -3 35 5 0 9 14 9 30
0 17 -4 30 -10 30 -5 0 -10 9 -10 20 0 11 6 20 14 20 20 0 29 75 20 170 -6 77
0 139 14 126 3 -4 7 -15 7 -24z m-2528 -114 c-3 -8 -6 -5 -6 6 -1 11 2 17 5
13 3 -3 4 -12 1 -19z m1818 -49 c4 -34 4 -109 -1 -168 -4 -58 -10 -94 -12 -78
-2 15 -8 27 -13 27 -9 0 -12 -48 -9 -174 1 -46 -2 -66 -9 -61 -6 3 -11 24 -11
46 0 21 -4 39 -10 39 -5 0 -10 18 -10 40 0 23 5 40 11 40 8 0 8 4 0 14 -9 11
-10 33 -1 92 9 72 20 107 20 73 1 -10 4 -8 11 4 6 10 11 52 11 93 0 41 3 74 8
74 4 0 11 -28 15 -61z m-1695 -41 c0 -16 4 -28 8 -28 13 0 32 -63 32 -106 0
-22 6 -46 13 -53 10 -10 8 -12 -8 -9 -16 2 -21 17 -31 81 -7 43 -17 83 -22 90
-6 7 -13 35 -16 62 -6 49 -6 50 9 20 8 -16 14 -42 15 -57z m2180 37 c0 -14 5
-25 10 -25 6 0 10 -11 10 -25 0 -14 -4 -25 -10 -25 -5 0 -10 8 -10 17 0 25
-14 6 -15 -20 0 -31 -19 -37 -23 -8 -6 43 8 111 24 111 8 0 14 -10 14 -25z
m-196 -36 c3 -17 6 -57 5 -88 -1 -56 -1 -56 -14 -26 -16 33 -20 145 -6 145 5
0 11 -14 15 -31z m706 -3 c0 -3 -4 -8 -10 -11 -5 -3 -10 -1 -10 4 0 6 5 11 10
11 6 0 10 -2 10 -4z m-950 -48 c0 -10 -4 -18 -9 -18 -16 0 -23 19 -16 41 6 17
9 19 16 8 5 -8 9 -22 9 -31z m320 16 c0 -8 4 -12 10 -9 6 3 7 -1 4 -9 -3 -9
-10 -14 -14 -11 -5 3 -11 -5 -13 -17 -2 -13 -5 -4 -6 20 0 23 4 42 9 42 6 0
10 -7 10 -16z m254 -9 c4 -14 2 -34 -4 -45 -6 -11 -8 -31 -4 -44 3 -14 1 -33
-4 -43 -9 -16 -11 -14 -17 12 -4 17 -11 43 -16 59 -11 37 -11 49 0 42 5 -3 12
5 15 19 8 32 22 32 30 0z m-2267 -7 c-3 -8 -6 -5 -6 6 -1 11 2 17 5 13 3 -3 4
-12 1 -19z m1470 -10 c-3 -8 -6 -5 -6 6 -1 11 2 17 5 13 3 -3 4 -12 1 -19z
m1130 -15 c-3 -10 -5 -4 -5 12 0 17 2 24 5 18 2 -7 2 -21 0 -30z m-1194 -28
c-16 -22 -41 -36 -31 -17 3 4 10 22 18 41 10 28 14 31 22 17 6 -11 3 -24 -9
-41z m333 7 c-11 -10 -15 4 -8 28 l7 25 3 -23 c2 -13 1 -26 -2 -30z m-1662
-34 c3 -33 2 -58 -3 -58 -14 0 -21 27 -21 83 0 66 15 50 24 -25z m226 26 c0
-33 13 -46 23 -21 3 7 6 4 6 -6 1 -13 6 -17 20 -12 16 5 20 -1 23 -32 7 -49 1
-55 -13 -15 -18 51 -36 40 -33 -20 2 -36 -2 -56 -13 -67 -15 -14 -16 -12 -10
30 4 31 2 52 -7 65 -14 20 -27 109 -18 118 11 12 22 -7 22 -40z m2330 14 c0
-36 -4 -35 -14 5 -4 16 -2 27 4 27 5 0 10 -14 10 -32z m-2303 -10 c-3 -7 -5
-2 -5 12 0 14 2 19 5 13 2 -7 2 -19 0 -25z m1342 -92 c-5 -6 -8 18 -8 55 l2
64 7 -55 c4 -30 3 -59 -1 -64z m118 92 c-3 -8 -6 -5 -6 6 -1 11 2 17 5 13 3
-3 4 -12 1 -19z m-615 -65 c4 -56 2 -71 -6 -62 -7 8 -12 119 -5 119 4 0 9 -26
11 -57z m-1224 11 c-3 -14 -5 -12 -10 9 -3 19 -2 25 4 19 6 -6 8 -18 6 -28z
m1758 20 c-3 -8 -2 -12 4 -9 9 6 15 -25 10 -50 -1 -5 -5 -28 -9 -49 l-6 -40
-19 29 c-15 22 -16 32 -7 47 6 10 11 34 11 53 0 19 5 35 11 35 6 0 8 -7 5 -16z
m151 -16 c-3 -7 -5 -2 -5 12 0 14 2 19 5 13 2 -7 2 -19 0 -25z m-313 -156 c5
-42 4 -53 -6 -50 -7 3 -15 20 -19 39 -3 19 -9 40 -13 48 -12 19 -14 83 -3 111
9 23 11 19 22 -35 7 -33 16 -84 19 -113z m-184 143 c0 -2 -7 -5 -15 -9 -9 -3
-15 0 -15 9 0 9 6 12 15 9 8 -4 15 -7 15 -9z m79 -75 c1 -35 -3 -59 -8 -56
-12 8 -25 102 -16 116 13 22 22 -1 24 -60z m-1498 -26 c5 -6 12 -36 14 -65 5
-52 4 -53 -5 -15 -6 22 -17 59 -25 83 -8 24 -15 54 -14 66 1 13 5 6 10 -17 5
-22 14 -45 20 -52z m1926 54 c-3 -8 -6 -5 -6 6 -1 11 2 17 5 13 3 -3 4 -12 1
-19z m-71 -35 c-11 -11 -19 6 -11 24 8 17 8 17 12 0 3 -10 2 -21 -1 -24z
m-573 -20 c5 -50 0 -76 -14 -67 -12 7 -12 114 0 114 4 0 11 -21 14 -47z m-951
5 c-7 -7 -12 -8 -12 -2 0 14 12 26 19 19 2 -3 -1 -11 -7 -17z m1565 0 c-3 -8
-6 -5 -6 6 -1 11 2 17 5 13 3 -3 4 -12 1 -19z m43 -42 c0 -30 -7 -67 -16 -82
-15 -28 -15 -28 -12 -4 2 17 -1 24 -10 22 -8 -1 -12 3 -9 10 2 7 10 12 16 11
14 -4 14 3 1 27 -7 13 -7 21 0 25 5 3 10 15 10 26 0 10 5 19 10 19 6 0 10 -24
10 -54z m-124 7 c-11 -11 -19 6 -11 24 8 17 8 17 12 0 3 -10 2 -21 -1 -24z
m-269 5 c-3 -8 -6 -5 -6 6 -1 11 2 17 5 13 3 -3 4 -12 1 -19z m208 -22 c4 -18
5 -44 3 -57 -2 -15 -7 -3 -14 34 -6 31 -7 57 -3 57 5 0 11 -15 14 -34z m-588
2 c-3 -8 -6 -5 -6 6 -1 11 2 17 5 13 3 -3 4 -12 1 -19z m200 -35 c-3 -10 -5
-2 -5 17 0 19 2 27 5 18 2 -10 2 -26 0 -35z m607 10 c-4 -21 -7 -48 -7 -60 1
-13 -3 -23 -8 -23 -10 0 -12 103 -2 113 17 18 25 4 17 -30z m-869 -3 c3 -6 -1
-7 -9 -4 -18 7 -21 14 -7 14 6 0 13 -4 16 -10z m75 -36 c0 -21 -4 -33 -10 -29
-5 3 -10 19 -10 36 0 16 5 29 10 29 6 0 10 -16 10 -36z m-60 -15 c0 -5 -4 -9
-10 -9 -5 0 -10 7 -10 16 0 8 5 12 10 9 6 -3 10 -10 10 -16z m-560 -21 c0 -19
-2 -20 -10 -8 -13 19 -13 30 0 30 6 0 10 -10 10 -22z m917 -120 c-3 -8 -6 -5
-6 6 -1 11 2 17 5 13 3 -3 4 -12 1 -19z"/>
<path d="M1362 3710 c0 -14 2 -19 5 -12 2 6 2 18 0 25 -3 6 -5 1 -5 -13z"/>
<path d="M1372 3665 c0 -11 4 -31 8 -45 l8 -25 0 25 c0 14 -3 34 -8 45 l-9 20
1 -20z"/>
<path d="M1411 3624 c0 -11 3 -14 6 -6 3 7 2 16 -1 19 -3 4 -6 -2 -5 -13z"/>
<path d="M1320 3583 c0 -4 5 -15 10 -23 8 -13 10 -13 10 2 0 9 -4 20 -10 23
-5 3 -10 3 -10 -2z"/>
<path d="M1442 3560 c0 -14 2 -19 5 -12 2 6 2 18 0 25 -3 6 -5 1 -5 -13z"/>
<path d="M1484 3533 c-8 -3 -9 -16 -2 -46 13 -59 21 -61 14 -2 -7 57 0 50 14
-16 l9 -44 -3 48 c-4 51 -13 67 -32 60z"/>
<path d="M1531 3504 c0 -11 3 -14 6 -6 3 7 2 16 -1 19 -3 4 -6 -2 -5 -13z"/>
<path d="M1541 3464 c0 -11 3 -14 6 -6 3 7 2 16 -1 19 -3 4 -6 -2 -5 -13z"/>
<path d="M1572 3420 c0 -14 2 -19 5 -12 2 6 2 18 0 25 -3 6 -5 1 -5 -13z"/>
<path d="M1242 3400 c3 -8 13 -41 23 -73 10 -31 20 -55 23 -52 7 6 -28 117
-41 130 -7 7 -8 5 -5 -5z"/>
<path d="M1581 3364 c0 -11 3 -14 6 -6 3 7 2 16 -1 19 -3 4 -6 -2 -5 -13z"/>
<path d="M1296 3345 c8 -35 10 -39 17 -28 3 5 -1 19 -9 33 l-14 25 6 -30z"/>
<path d="M1351 3354 c0 -11 3 -14 6 -6 3 7 2 16 -1 19 -3 4 -6 -2 -5 -13z"/>
<path d="M1561 3334 c0 -11 3 -14 6 -6 3 7 2 16 -1 19 -3 4 -6 -2 -5 -13z"/>
<path d="M1622 3320 c0 -14 2 -19 5 -12 2 6 2 18 0 25 -3 6 -5 1 -5 -13z"/>
<path d="M1331 3300 c-2 -29 -4 -32 -11 -15 -8 19 -9 19 -9 -2 -1 -12 4 -23
11 -25 6 -2 14 -35 18 -74 7 -68 7 -68 8 -14 0 71 -14 182 -17 130z"/>
<path d="M1712 3280 c0 -14 2 -19 5 -12 2 6 2 18 0 25 -3 6 -5 1 -5 -13z"/>
<path d="M1626 3250 c3 -19 10 -42 15 -50 5 -9 6 -2 2 20 -3 19 -10 42 -15 50
-6 10 -7 3 -2 -20z"/>
<path d="M1682 3240 c0 -8 4 -26 8 -40 6 -20 8 -21 8 -5 0 11 -3 29 -8 40 -5
12 -8 14 -8 5z"/>
<path d="M1626 3165 c8 -37 24 -57 24 -29 0 11 -7 29 -15 40 -14 18 -15 17 -9
-11z"/>
<path d="M1721 3174 c0 -11 3 -14 6 -6 3 7 2 16 -1 19 -3 4 -6 -2 -5 -13z"/>
<path d="M1372 3130 c0 -14 2 -19 5 -12 2 6 2 18 0 25 -3 6 -5 1 -5 -13z"/>
<path d="M1402 3125 c0 -16 2 -22 5 -12 2 9 2 23 0 30 -3 6 -5 -1 -5 -18z"/>
<path d="M1432 3130 c0 -14 2 -19 5 -12 2 6 2 18 0 25 -3 6 -5 1 -5 -13z"/>
<path d="M1512 3130 c0 -14 2 -19 5 -12 2 6 2 18 0 25 -3 6 -5 1 -5 -13z"/>
<path d="M1541 3114 c0 -11 3 -14 6 -6 3 7 2 16 -1 19 -3 4 -6 -2 -5 -13z"/>
<path d="M1481 3094 c0 -11 3 -14 6 -6 3 7 2 16 -1 19 -3 4 -6 -2 -5 -13z"/>
<path d="M1462 3050 c0 -8 4 -26 8 -40 6 -20 8 -21 8 -5 0 11 -3 29 -8 40 -5
12 -8 14 -8 5z"/>
<path d="M1492 3035 c0 -16 2 -22 5 -12 2 9 2 23 0 30 -3 6 -5 -1 -5 -18z"/>
<path d="M1441 2994 c0 -11 3 -14 6 -6 3 7 2 16 -1 19 -3 4 -6 -2 -5 -13z"/>
<path d="M1501 2969 c1 -19 5 -47 10 -64 5 -20 6 -9 2 30 -6 66 -14 88 -12 34z"/>
<path d="M1530 2962 c0 -25 31 -227 36 -231 7 -7 -5 121 -17 187 -9 45 -19 69
-19 44z"/>
<path d="M1652 2760 c0 -14 2 -19 5 -12 2 6 2 18 0 25 -3 6 -5 1 -5 -13z"/>
<path d="M2041 2667 c-2 -41 91 -516 119 -607 6 -19 26 -107 45 -195 45 -202
56 -244 66 -251 12 -7 12 -7 -15 109 -13 56 -36 156 -51 222 -15 66 -35 147
-45 180 -9 33 -26 103 -36 155 -35 188 -82 405 -83 387z"/>
<path d="M2033 2365 c0 -22 2 -30 4 -17 2 12 2 30 0 40 -3 9 -5 -1 -4 -23z"/>
<path d="M3302 2235 c0 -16 2 -22 5 -12 2 9 2 23 0 30 -3 6 -5 -1 -5 -18z"/>
<path d="M2873 1527 c3 -20 12 -51 21 -69 8 -18 23 -60 32 -93 10 -33 19 -52
22 -43 2 9 -11 57 -27 106 -17 49 -31 96 -31 105 0 9 -5 19 -12 23 -8 5 -9 -3
-5 -29z"/>
<path d="M2851 925 c0 -16 6 -41 14 -55 8 -14 15 -36 15 -50 0 -28 16 -58 25
-48 3 3 -8 45 -24 94 -20 61 -30 80 -30 59z"/>
<path d="M6625 5161 c-6 -5 -64 -38 -130 -74 -244 -131 -594 -316 -720 -382
-71 -37 -191 -100 -265 -140 -74 -40 -182 -97 -240 -127 -582 -306 -616 -324
-681 -369 -30 -20 -70 -53 -87 -73 -37 -43 -121 -165 -158 -232 -15 -26 -35
-57 -46 -68 -35 -38 -34 -66 1 -93 37 -29 61 -72 61 -107 0 -32 12 -39 44 -26
22 8 31 4 71 -30 26 -22 50 -40 55 -40 12 0 64 29 280 155 171 100 471 271
1195 683 198 112 376 213 395 224 153 89 230 133 328 187 61 35 112 64 112 66
0 10 -104 261 -138 335 -48 102 -64 124 -77 111z m-268 -567 c-3 -3 -12 -4
-19 -1 -8 3 -5 6 6 6 11 1 17 -2 13 -5z m-47 -16 c0 -5 -8 -11 -17 -15 -10 -3
-35 -21 -56 -40 -20 -18 -43 -33 -50 -33 -8 0 -22 -9 -32 -20 -10 -11 -27 -23
-39 -26 -11 -4 -26 -14 -32 -22 -6 -8 -31 -26 -56 -41 -25 -14 -72 -44 -104
-66 -32 -21 -68 -44 -80 -51 -31 -17 -160 -96 -207 -127 -23 -15 -50 -30 -59
-33 -10 -4 -18 -10 -18 -15 0 -5 -10 -14 -22 -19 -13 -5 -41 -21 -63 -35 -22
-13 -60 -36 -85 -50 -25 -14 -74 -43 -109 -65 -34 -22 -64 -40 -66 -40 -2 0
-30 -17 -62 -37 -86 -56 -95 -61 -133 -80 -19 -9 -46 -25 -60 -36 -14 -10 -38
-25 -55 -33 -16 -8 -50 -27 -75 -44 -25 -16 -56 -35 -70 -42 -14 -7 -44 -25
-67 -40 -35 -23 -42 -25 -47 -12 -17 43 3 109 56 186 14 20 20 52 24 120 3 51
7 94 10 97 8 9 16 -8 21 -51 3 -24 10 -46 16 -49 5 -4 37 8 71 27 89 48 257
130 285 139 13 4 76 35 140 68 167 87 181 94 194 105 33 26 524 263 627 303
19 7 37 15 40 18 15 17 72 41 98 41 16 0 35 6 41 13 12 15 41 18 41 5z m-1676
-1013 c5 -36 4 -46 -3 -35 -10 13 -16 99 -7 89 2 -2 6 -26 10 -54z"/>
<path d="M910 4656 c0 -10 6 -24 13 -30 8 -6 22 -33 31 -59 10 -27 20 -46 22
-44 2 2 -2 23 -10 45 -9 23 -11 42 -7 42 5 0 14 -20 21 -45 7 -25 16 -48 21
-50 4 -3 4 9 -1 26 -5 18 -7 43 -4 55 7 28 -5 52 -16 34 -6 -9 -10 -6 -15 9
-7 22 -25 29 -25 9 0 -6 -7 -3 -15 8 -14 18 -14 18 -15 0z"/>
<path d="M1085 4620 c12 -40 26 -59 19 -25 -4 17 -11 35 -16 40 -7 7 -8 1 -3
-15z"/>
<path d="M1192 4540 c0 -14 2 -19 5 -12 2 6 2 18 0 25 -3 6 -5 1 -5 -13z"/>
<path d="M1190 4471 c0 -6 4 -13 10 -16 6 -3 7 1 4 9 -7 18 -14 21 -14 7z"/>
<path d="M1216 4413 c8 -34 14 -42 14 -20 0 8 3 22 6 31 4 11 1 16 -10 16 -13
0 -15 -6 -10 -27z"/>
<path d="M1255 4370 c12 -40 26 -59 19 -25 -4 17 -11 35 -16 40 -7 7 -8 1 -3
-15z"/>
<path d="M1280 4387 c0 -30 49 -171 50 -144 0 16 -34 132 -42 142 -4 5 -8 6
-8 2z"/>
<path d="M6901 4164 c-40 -24 -75 -44 -78 -44 -2 0 -9 -5 -16 -10 -12 -11 -81
-52 -542 -325 -137 -81 -270 -160 -295 -175 -25 -15 -149 -89 -276 -164 -127
-76 -258 -159 -290 -185 -33 -27 -106 -108 -164 -180 -58 -73 -117 -147 -132
-164 -34 -40 -68 -161 -36 -129 31 31 60 13 188 -113 69 -69 132 -125 140
-125 8 0 56 27 106 59 51 33 136 88 190 124 115 74 1101 704 1249 797 55 34
102 64 103 66 2 1 1 32 -3 68 -7 59 -9 65 -25 56 -10 -6 -24 -16 -32 -23 -13
-12 -72 -53 -183 -127 -29 -19 -72 -48 -96 -65 -24 -16 -51 -34 -60 -40 -9 -5
-69 -46 -134 -90 -64 -44 -140 -93 -169 -109 -28 -16 -65 -39 -82 -50 -18 -12
-83 -55 -145 -97 -149 -99 -230 -152 -249 -161 -8 -5 -49 -30 -90 -58 -41 -27
-84 -54 -95 -59 -12 -5 -27 -16 -34 -25 -7 -9 -18 -16 -24 -16 -6 0 -21 -10
-33 -21 -31 -29 -55 -19 -48 18 3 15 6 35 7 44 2 8 18 39 37 68 33 52 34 55
31 153 -2 79 0 99 11 96 8 -3 15 -29 19 -66 3 -34 8 -64 10 -67 3 -2 16 3 31
13 14 9 63 42 109 73 101 67 222 139 344 204 50 26 109 61 133 77 24 15 46 28
51 28 4 0 26 14 49 31 23 17 42 28 42 25 0 -6 32 13 126 71 10 7 61 36 113 65
52 29 115 65 140 79 25 15 71 40 101 55 117 60 130 72 130 118 0 50 -38 315
-48 332 -5 9 -27 1 -81 -32z"/>
<path d="M3630 2498 c0 -7 5 -20 10 -28 8 -12 10 -9 10 13 0 15 -4 27 -10 27
-5 0 -10 -6 -10 -12z"/>
<path d="M3713 2465 c0 -27 2 -38 4 -22 2 15 2 37 0 50 -2 12 -4 0 -4 -28z"/>
<path d="M4291 2104 c0 -11 3 -14 6 -6 3 7 2 16 -1 19 -3 4 -6 -2 -5 -13z"/>
<path d="M4212 1965 c0 -16 2 -22 5 -12 2 9 2 23 0 30 -3 6 -5 -1 -5 -18z"/>
<path d="M3207 1345 c3 -22 7 -42 9 -44 8 -9 2 45 -6 64 -7 14 -8 8 -3 -20z"/>
<path d="M3301 1339 c-1 -9 4 -40 9 -69 7 -39 7 -56 -1 -61 -8 -5 -8 -20 2
-58 9 -35 15 -47 21 -37 13 22 2 168 -15 206 -8 19 -16 28 -16 19z"/>
<path d="M4042 1295 c0 -16 2 -22 5 -12 2 9 2 23 0 30 -3 6 -5 -1 -5 -18z"/>
<path d="M3220 1271 c0 -11 5 -23 10 -26 6 -3 10 3 10 14 0 11 -4 23 -10 26
-5 3 -10 -3 -10 -14z"/>
<path d="M3360 1275 c0 -11 5 -27 10 -35 8 -12 10 -12 10 5 0 11 -5 27 -10 35
-8 12 -10 12 -10 -5z"/>
<path d="M4055 1136 c4 -37 11 -54 19 -45 2 2 -3 22 -10 44 l-14 40 5 -39z"/>
<path d="M3640 1115 c0 -7 5 -38 11 -67 10 -46 13 -50 20 -30 10 26 -8 112
-22 112 -5 0 -9 -7 -9 -15z"/>
<path d="M3861 1044 c0 -11 3 -14 6 -6 3 7 2 16 -1 19 -3 4 -6 -2 -5 -13z"/>
<path d="M3321 988 c0 -31 3 -37 8 -24 7 18 3 66 -5 66 -2 0 -4 -19 -3 -42z"/>
<path d="M3702 995 c0 -16 2 -22 5 -12 2 9 2 23 0 30 -3 6 -5 -1 -5 -18z"/>
<path d="M3248 984 c-10 -9 2 -156 13 -168 6 -6 9 -3 9 7 0 28 28 19 33 -10 2
-17 5 -7 6 22 1 28 4 61 8 75 3 15 2 22 -3 17 -5 -5 -14 8 -21 30 l-11 38 -2
-40 -2 -40 -11 38 c-7 22 -15 36 -19 31z"/>
<path d="M3792 960 c0 -14 2 -19 5 -12 2 6 2 18 0 25 -3 6 -5 1 -5 -13z"/>
<path d="M3022 820 c0 -19 2 -27 5 -17 2 9 2 25 0 35 -3 9 -5 1 -5 -18z"/>
<path d="M3122 805 c0 -16 2 -22 5 -12 2 9 2 23 0 30 -3 6 -5 -1 -5 -18z"/>
<path d="M3160 801 c0 -25 6 -27 13 -6 4 8 2 17 -3 20 -6 4 -10 -3 -10 -14z"/>
<path d="M3801 777 c-13 -21 -12 -21 5 -5 10 10 16 20 13 22 -3 3 -11 -5 -18
-17z"/>
<path d="M3403 765 c-3 -9 -3 -18 -1 -21 3 -3 8 4 11 16 6 23 -1 27 -10 5z"/>
<path d="M3180 746 c0 -22 3 -27 11 -19 8 8 8 16 0 30 -9 16 -10 14 -11 -11z"/>
<path d="M3321 724 c0 -11 3 -14 6 -6 3 7 2 16 -1 19 -3 4 -6 -2 -5 -13z"/>
<path d="M3798 715 c-7 -8 3 -54 13 -61 5 -3 6 10 2 28 -7 38 -8 40 -15 33z"/>
<path d="M3446 590 c4 -47 11 -89 17 -95 13 -14 2 138 -12 162 -8 13 -9 -4 -5
-67z"/>
<path d="M3500 596 c0 -32 5 -56 12 -58 7 -3 12 -36 14 -89 2 -46 8 -106 13
-134 5 -27 10 -57 11 -65 0 -13 2 -13 10 1 16 27 25 206 11 223 -6 7 -11 18
-10 22 1 5 0 27 -1 49 -2 35 -3 37 -10 15 l-8 -25 -1 28 c-1 18 -6 27 -17 27
-12 0 -15 6 -10 24 3 14 2 28 -4 31 -6 4 -10 -14 -10 -49z"/>
<path d="M3801 594 c0 -11 3 -14 6 -6 3 7 2 16 -1 19 -3 4 -6 -2 -5 -13z"/>
<path d="M3050 581 c0 -11 5 -23 10 -26 6 -4 10 5 10 19 0 14 -4 26 -10 26 -5
0 -10 -9 -10 -19z"/>
<path d="M3761 584 c0 -11 3 -14 6 -6 3 7 2 16 -1 19 -3 4 -6 -2 -5 -13z"/>
<path d="M2780 540 c0 -21 17 -46 25 -38 4 4 0 17 -9 30 -10 14 -16 17 -16 8z"/>
<path d="M3410 492 c0 -17 4 -34 10 -37 6 -4 8 6 6 25 -5 42 -16 51 -16 12z"/>
<path d="M2851 475 c0 -11 4 -29 9 -40 8 -18 9 -18 9 5 0 14 -4 32 -9 40 -8
12 -10 12 -9 -5z"/>
<path d="M3482 435 c-1 -46 1 -55 8 -37 6 13 6 38 1 60 -8 35 -9 33 -9 -23z"/>
<path d="M3046 471 c-4 -7 -5 -15 -2 -18 9 -9 19 4 14 18 -4 11 -6 11 -12 0z"/>
<path d="M3084 457 c-3 -9 -1 -40 5 -69 l10 -53 -3 47 c-2 26 1 51 7 57 8 8 8
14 -1 23 -9 9 -13 8 -18 -5z"/>
<path d="M3370 463 c0 -5 5 -15 10 -23 8 -12 10 -11 10 8 0 12 -4 22 -10 22
-5 0 -10 -3 -10 -7z"/>
<path d="M2815 437 c-4 -10 -5 -21 -1 -24 10 -10 18 4 13 24 -4 17 -4 17 -12
0z"/>
<path d="M3341 403 c0 -4 4 -17 9 -28 8 -19 9 -19 9 2 1 12 -3 25 -9 28 -5 3
-10 3 -9 -2z"/>
<path d="M3120 345 c0 -16 6 -25 16 -25 11 0 14 5 10 16 -3 9 -6 20 -6 25 0 5
-4 9 -10 9 -5 0 -10 -11 -10 -25z"/>
<path d="M3322 340 c0 -14 2 -19 5 -12 2 6 2 18 0 25 -3 6 -5 1 -5 -13z"/>
<path d="M3423 310 c0 -25 2 -35 4 -22 2 12 2 32 0 45 -2 12 -4 2 -4 -23z"/>
<path d="M3441 154 c0 -11 3 -14 6 -6 3 7 2 16 -1 19 -3 4 -6 -2 -5 -13z"/>
</g>
</svg>
